<svg width="364" height="413" viewBox="0 0 364 413" fill="none" xmlns="http://www.w3.org/2000/svg">
<g clip-path="url(#clip0_1041_544)">
<rect x="14.1892" y="0.000183105" width="349.193" height="412.578" rx="23.0491" fill="url(#paint0_linear_1041_544)"/>
<g filter="url(#filter0_d_1041_544)">
<path d="M25.6923 26.7083C23.1788 16.6543 30.783 6.9151 41.1464 6.9151H268.902C276.212 6.9151 282.583 11.8899 284.356 18.9813L296.994 69.5336C299.508 79.5875 291.904 89.3268 281.54 89.3268H53.7844C46.4748 89.3268 40.1032 84.352 38.3304 77.2606L25.6923 26.7083Z" fill="url(#paint1_linear_1041_544)" shape-rendering="crispEdges"/>
<path d="M41.1464 7.71198H268.902C275.846 7.71202 281.9 12.4381 283.584 19.1749L296.222 69.7266C298.609 79.2779 291.385 88.5303 281.54 88.5303H53.7841C46.8401 88.5302 40.7876 83.8041 39.1034 77.0674L26.4647 26.5147C24.0772 16.9636 31.3013 7.71198 41.1464 7.71198Z" stroke="#F5F6FF" stroke-width="1.59297" shape-rendering="crispEdges"/>
</g>
<path d="M268.233 222.205C275.785 214.653 275.785 202.408 268.233 194.856C260.681 187.304 248.437 187.304 240.885 194.856C233.333 202.408 233.333 214.653 240.885 222.205C248.437 229.757 260.681 229.757 268.233 222.205Z" fill="#1B2742"/>
<path d="M377.989 217.486C386.521 211.059 388.227 198.934 381.801 190.402C375.374 181.871 363.249 180.164 354.717 186.59C346.186 193.017 344.479 205.143 350.906 213.674C357.332 222.205 369.458 223.912 377.989 217.486Z" fill="#1B2742"/>
<path d="M370.592 185.523C357.307 190.364 367.763 230.265 367.763 230.265C377.216 234 400.25 241.006 421.583 245.298L420.208 196.879C398.874 191.512 374.507 184.096 370.592 185.523Z" fill="#4D96E0"/>
<path d="M179.392 295.877C186.944 288.325 186.944 276.081 179.392 268.529C171.84 260.977 159.595 260.977 152.043 268.529C144.491 276.081 144.491 288.325 152.043 295.877C159.595 303.429 171.84 303.429 179.392 295.877Z" fill="#1B2742"/>
<path d="M263.97 226.629C263.97 226.629 248.044 197.42 234.134 199.954C225.987 201.437 167.547 256.068 167.653 267.704C167.76 279.34 187.096 301.108 196.441 293.225C206.681 284.585 259.022 236.15 263.97 226.629Z" fill="#4D96E0"/>
<path d="M186.927 292.723C206.524 273.512 225.745 253.924 245.177 234.545C250.267 229.469 255.37 224.405 260.504 219.372C261.146 218.743 260.16 217.758 259.519 218.387C239.922 237.598 220.701 257.187 201.269 276.565C196.179 281.641 191.076 286.705 185.942 291.738C185.3 292.367 186.285 293.352 186.927 292.723Z" fill="#1B2742"/>
<path d="M252.29 83.6379C252.29 83.6379 344.321 84.8477 355.382 95.1411C366.443 105.435 359.211 166.757 345.167 171.693C331.036 176.659 253.46 168.359 240.538 163.366C232.389 160.217 235.46 82.8347 252.29 83.6379Z" fill="#4D96E0"/>
<path d="M148.535 172.45C148.535 171.685 148.535 150.642 152.163 149.701C155.79 148.759 182.27 149.386 184.447 151.585C186.623 153.783 187.349 175.228 187.349 175.228L148.535 172.45Z" fill="#1B2742"/>
<path d="M146.111 119.765C142.019 119.146 138.615 116.142 137.652 112.117C137.306 110.669 137.04 108.951 136.927 106.925C136.539 99.966 133.879 88.63 126.909 90.8072C119.939 92.9854 121.682 116.508 121.682 116.508C121.682 116.508 118.027 106.373 112.666 100.674C108.342 96.0776 100.524 99.6624 101.196 105.937L101.209 106.054C101.209 106.054 94.2391 103.876 92.061 107.796C89.8828 111.717 90.318 119.558 99.9012 129.576L104.258 133.933C104.258 133.933 88.1408 126.528 84.656 130.883C81.1711 135.239 82.0969 139.891 97.2888 144.822C117.336 151.329 146.076 148.743 146.076 148.743C146.076 148.743 144.475 154.939 146.653 157.552C148.831 160.166 186.225 157.552 186.225 157.552C186.225 157.552 194.252 137.638 187.023 129.141C180.221 121.144 170.71 120.948 164.611 120.948C160.493 120.948 152.248 120.694 146.111 119.765Z" fill="#4D96E0"/>
<path d="M100.353 131.455C103.829 135.914 108.239 139.68 112.857 142.91C117.386 146.078 122.494 149.016 127.978 150.092C128.855 150.264 129.23 148.921 128.349 148.748C122.971 147.692 118.004 144.811 113.56 141.706C109.038 138.547 104.74 134.832 101.339 130.469C100.789 129.763 99.8083 130.755 100.353 131.455Z" fill="#1B2742"/>
<path d="M100.329 106.135C100.805 113.819 103.422 121.318 107.979 127.54C111.957 132.972 117.658 137.069 123.471 140.351C126.689 142.167 130.078 143.774 133.633 144.808C134.496 145.059 134.865 143.714 134.004 143.464C130.148 142.342 126.505 140.537 123.056 138.501C119.381 136.332 115.845 133.841 112.754 130.889C106.076 124.515 102.289 115.272 101.723 106.135C101.669 105.244 100.274 105.238 100.329 106.135Z" fill="#1B2742"/>
<path d="M120.905 107.285C120.975 119.407 126.452 130.688 135.993 138.174C136.691 138.722 137.684 137.742 136.978 137.189C127.714 129.921 122.367 119.074 122.299 107.286C122.294 106.389 120.9 106.387 120.905 107.285Z" fill="#1B2742"/>
<path d="M291.021 286.885C291.021 286.885 293.847 298.319 296.697 299.77C299.384 301.138 321.145 307.581 343.555 301.07C356.284 297.371 362.922 291.883 366.281 287.83C368.491 285.165 369.182 281.565 368.082 278.282L365.631 270.967L291.021 286.885Z" fill="#1B2742"/>
<path d="M254.31 190.875C254.31 190.875 245.767 221.006 249.808 236.556C253.849 252.106 267.2 284.793 276.868 287.095C286.536 289.397 370.566 278.149 371.947 264.798C373.328 251.447 364.689 182.208 355.102 180.061C307.007 169.286 255.876 184.684 254.31 190.875Z" fill="#4D96E0"/>
<path d="M186.725 167.279C186.725 167.279 147.139 163.172 142.972 170.328C138.805 177.484 129.416 265.935 137.032 274.732C144.649 283.529 179.759 274.911 181.774 262.853C183.982 249.639 189.12 177.738 186.725 167.279Z" fill="#4D96E0"/>
<path d="M171.566 273.289C174.164 244.694 174.65 215.936 176.298 187.279C176.726 179.838 177.216 172.4 177.89 164.977C177.971 164.084 176.577 164.09 176.496 164.977C173.899 193.572 173.413 222.331 171.765 250.987C171.337 258.428 170.847 265.866 170.173 273.289C170.091 274.183 171.486 274.178 171.566 273.289Z" fill="#1B2742"/>
<path d="M254.228 190.517C249.022 208.394 248.94 227.104 253.303 245.166C254.594 250.516 256.243 255.771 258.142 260.935C258.448 261.77 259.797 261.409 259.486 260.565C253.164 243.363 249.938 225.05 252.239 206.749C252.915 201.38 254.059 196.081 255.572 190.887C255.823 190.025 254.479 189.656 254.228 190.517Z" fill="#1B2742"/>
<path d="M128.657 149.913C137.914 142.529 144.335 131.898 146.572 120.271C146.741 119.395 145.398 119.019 145.228 119.9C143.03 131.324 136.765 141.674 127.671 148.928C126.97 149.486 127.963 150.467 128.657 149.913Z" fill="#1B2742"/>
<path d="M128.452 150.555C148.633 149.86 168.812 149.164 188.992 148.469C189.886 148.438 189.89 147.044 188.992 147.075C168.812 147.77 148.633 148.466 128.452 149.161C127.557 149.192 127.553 150.586 128.452 150.555Z" fill="#1B2742"/>
<path d="M328.378 163.336C303.051 163.336 260.72 158.307 247.219 155.053C246.269 150.218 245.467 138.927 246.801 123.91C248.479 105.015 252.055 96.2316 253.826 93.543C304.213 94.2928 341.683 98.6659 348.612 102.431C350.161 105.18 352.01 116.291 350.007 133.169C347.897 150.948 343.419 160.416 341.423 162.491C340.277 162.754 336.788 163.336 328.378 163.336Z" fill="#1B2742"/>
<path d="M267.811 118.16C267.874 121.358 270.261 123.902 273.143 123.845C276.024 123.788 278.308 121.15 278.245 117.953C278.182 114.756 275.794 112.212 272.912 112.269C270.031 112.325 267.747 114.963 267.811 118.16Z" fill="#A0D2F4"/>
<path d="M322.459 121.859C322.522 125.056 324.91 127.6 327.792 127.543C330.673 127.485 332.957 124.848 332.894 121.651C332.83 118.455 330.443 115.91 327.561 115.967C324.68 116.025 322.396 118.663 322.459 121.859Z" fill="#A0D2F4"/>
<path d="M285.397 123.028C294.289 128.77 306.055 129.14 315.308 124.014C316.092 123.58 315.391 122.375 314.604 122.81C305.77 127.704 294.578 127.298 286.1 121.823C285.344 121.337 284.645 122.542 285.397 123.028Z" fill="#A0D2F4"/>
<path d="M305.916 193.61C319.592 192.976 330.532 189.306 330.352 185.414C330.171 181.521 318.938 178.88 305.262 179.513C291.586 180.147 280.646 183.817 280.826 187.709C281.007 191.602 292.24 194.243 305.916 193.61Z" fill="#1B2742"/>
<path d="M304.565 189.725C307.238 214.014 312.068 238.052 319.044 261.473C321.009 268.074 323.148 274.622 325.445 281.115C325.741 281.955 327.089 281.593 326.789 280.744C318.721 257.934 312.677 234.417 308.791 210.534C307.666 203.624 306.725 196.685 305.96 189.725C305.862 188.842 304.467 188.832 304.565 189.725Z" fill="#1B2742"/>
<path d="M254.747 192.877C263.656 189.669 272.938 187.644 282.377 186.879C283.266 186.807 283.272 185.412 282.377 185.485C272.814 186.26 263.405 188.283 254.376 191.532C253.54 191.834 253.901 193.181 254.747 192.877Z" fill="#1B2742"/>
<path d="M327.38 185.132C336.801 184.394 346.257 184.268 355.694 184.755C356.59 184.801 356.588 183.407 355.694 183.361C346.256 182.873 336.801 183 327.38 183.738C326.492 183.807 326.484 185.202 327.38 185.132Z" fill="#1B2742"/>
<path d="M249.302 83.6496C249.18 87.8338 250.249 91.9933 252.366 95.6028C252.819 96.3764 254.025 95.676 253.57 94.8995C251.571 91.4918 250.58 87.5984 250.696 83.6496C250.722 82.7524 249.328 82.7534 249.302 83.6496Z" fill="#1B2742"/>
<path d="M348.105 104.022C351.929 102.254 355.367 99.6872 358.153 96.5268C358.744 95.8561 357.762 94.8669 357.168 95.5415C354.45 98.6238 351.132 101.095 347.401 102.819C346.588 103.195 347.296 104.397 348.105 104.022Z" fill="#1B2742"/>
<path d="M341.215 162.853C343.404 165.512 345.201 168.48 346.578 171.636C346.729 171.98 347.235 172.061 347.532 171.886C347.887 171.677 347.934 171.281 347.782 170.933C346.355 167.662 344.469 164.623 342.201 161.868C341.96 161.575 341.466 161.623 341.216 161.868C340.924 162.152 340.977 162.564 341.215 162.853Z" fill="#1B2742"/>
<path d="M240.73 163.34C243.02 159.682 246.248 156.688 250.056 154.658C250.848 154.236 250.145 153.032 249.352 153.454C245.339 155.594 241.94 158.783 239.527 162.637C239.048 163.399 240.254 164.099 240.73 163.34Z" fill="#1B2742"/>
<path d="M144.126 279.835C153.48 280.762 162.999 279.779 171.946 276.877C175.473 275.733 179.739 274.42 181.603 270.907C182.54 269.14 182.812 267.139 183.052 265.181C183.353 262.73 183.603 260.272 183.816 257.811C184.315 252.069 184.583 246.31 184.639 240.547C184.648 239.65 183.255 239.649 183.246 240.547C183.2 245.212 183.018 249.875 182.683 254.528C182.364 258.953 182.235 263.668 181.191 267.991C180.075 272.613 175.913 274.108 171.821 275.452C167.653 276.821 163.345 277.787 158.989 278.31C154.054 278.904 149.07 278.929 144.126 278.439C143.233 278.352 143.24 279.746 144.126 279.835Z" fill="#1B2742"/>
<path d="M357.026 183.853C364.01 200.671 368.624 218.461 370.607 236.566C371.17 241.707 371.517 246.867 371.667 252.036C371.693 252.931 373.087 252.935 373.061 252.036C372.532 233.793 369.434 215.643 363.828 198.273C362.214 193.27 360.387 188.337 358.371 183.483C358.031 182.665 356.682 183.025 357.026 183.853Z" fill="#1B2742"/>
<path d="M112.148 260.558C112.148 260.558 126.784 321.985 162.705 334.832C190.397 344.736 234.225 291.591 245.727 296.715C257.229 301.84 262.17 305.36 257.933 315.767C253.695 326.175 194.953 394.71 156.152 383.021C117.349 371.333 94.2463 293.119 112.148 260.558Z" fill="#341A1B"/>
<path d="M112.148 260.558C112.148 260.558 126.784 321.985 162.705 334.832C190.397 344.736 234.225 291.591 245.727 296.715C257.229 301.84 262.17 305.36 257.933 315.767C253.695 326.175 194.953 394.71 156.152 383.021C117.349 371.333 94.2463 293.119 112.148 260.558Z" fill="url(#paint2_linear_1041_544)"/>
<path d="M179.399 403.773C142.581 492.309 111.306 515.321 92.8272 501.498C44.0714 465.027 27.5084 400.679 23.4558 368.524C22.9473 364.511 22.1209 360.214 21.0936 355.748C19.5749 349.173 17.6164 342.22 15.5841 335.232C7.94599 308.966 -0.755465 282.188 8.99054 272.923C17.7401 264.606 27.6115 263.842 35.3406 259.834C40.1303 257.348 45.3427 255.793 50.7182 255.273L81.9954 252.251C81.9954 252.251 99.2715 257.517 105.233 259.982C111.194 262.447 113.152 270.296 125.977 283.031C138.802 295.766 142.688 311.842 150.056 329.76C146.053 345.955 146.034 340.197 150.882 363.934C156.821 393.017 183.855 393.058 179.399 403.773Z" fill="#FE812D"/>
<path d="M179.399 403.773C142.581 492.309 111.306 515.321 92.8272 501.498C44.0714 465.027 27.5084 400.679 23.4558 368.524C22.9473 364.511 22.1209 360.214 21.0936 355.748C19.5749 349.173 17.6164 342.22 15.5841 335.232C7.94599 308.966 -0.755465 282.188 8.99054 272.923C17.7401 264.606 27.6115 263.842 35.3406 259.834C40.1303 257.348 45.3427 255.793 50.7182 255.273L81.9954 252.251C81.9954 252.251 99.2715 257.517 105.233 259.982C111.194 262.447 113.152 270.296 125.977 283.031C138.802 295.766 142.688 311.842 150.056 329.76C146.053 345.955 146.034 340.197 150.882 363.934C156.821 393.017 183.855 393.058 179.399 403.773Z" fill="url(#paint3_linear_1041_544)"/>
<path d="M63.7336 276.544C59.5864 274.926 56.6917 273.227 56.4065 273.057L57.3067 271.541C57.4733 271.641 74.0379 281.346 85.2734 276.34C90.2366 274.129 93.4905 269.311 94.9421 262.022L96.6721 262.367C95.1019 270.251 91.5062 275.494 85.9881 277.951C78.7795 281.162 69.8822 278.942 63.7336 276.544Z" fill="#041163"/>
<path d="M68.7017 302.951L75.2145 321.701C75.2145 321.701 103.798 313.357 123.104 309.564L115.571 292.503C115.571 292.503 87.4446 296.94 68.7017 302.951Z" fill="#BF8B00"/>
<path d="M98.7251 501.594C99.1649 501.836 99.7284 501.754 100.077 501.364C100.483 500.91 100.443 500.215 99.9895 499.809C66.4394 469.825 48.4059 426.035 39.1856 394.579C29.1854 360.46 27.1135 333.124 27.0929 332.852C27.0482 332.246 26.5208 331.79 25.9161 331.833C25.3096 331.878 24.8544 332.404 24.8973 333.01C24.918 333.285 27.007 360.855 37.0726 395.197C42.9875 415.375 50.4589 433.92 59.2807 450.318C70.3238 470.844 83.5263 488.048 98.5224 501.45C98.5877 501.506 98.6547 501.555 98.7251 501.594Z" fill="#BF632D"/>
<path d="M103.735 444.291C103.743 444.296 103.752 444.301 103.762 444.307C104.302 444.585 104.966 444.374 105.245 443.832C115.795 423.387 130.906 411.177 141.726 404.534C153.435 397.346 162.724 394.968 162.815 394.944C163.405 394.797 163.764 394.199 163.616 393.609C163.468 393.02 162.87 392.661 162.281 392.811C161.889 392.909 152.569 395.295 140.575 402.658C129.516 409.447 114.07 421.927 103.288 442.822C103.015 443.355 103.214 444.004 103.735 444.291Z" fill="#9B641D"/>
<path d="M102.441 408.283C102.797 408.479 103.247 408.47 103.602 408.223C103.817 408.073 125.24 393.271 145.186 391.132C145.79 391.067 146.227 390.526 146.162 389.921C146.096 389.317 145.553 388.88 144.95 388.945C124.436 391.146 103.236 405.795 102.343 406.419C101.845 406.766 101.723 407.451 102.07 407.951C102.17 408.092 102.298 408.204 102.441 408.283Z" fill="#9B641D"/>
<path d="M171.005 393.488L153.396 406.212C151.212 404.168 149.18 401.693 147.278 398.844C135.497 381.233 128.752 349.487 122.6 318.627C115.453 282.782 91.6936 251.733 91.6936 251.733C95.8854 249.708 100.578 254.283 104.657 254.915C107.649 255.379 118.819 263.442 120.791 265.744C128.658 274.911 131.185 282.418 140.383 297.437C150.783 314.427 150.512 327.781 150.749 341.602C150.922 351.731 161.732 374.903 167.488 386.543C169.583 390.78 171.005 393.488 171.005 393.488Z" fill="#341A1B"/>
<path d="M171.005 393.488L153.396 406.212C151.212 404.168 149.18 401.693 147.278 398.844C135.497 381.233 128.752 349.487 122.6 318.627C115.453 282.782 91.6936 251.733 91.6936 251.733C95.8854 249.708 100.578 254.283 104.657 254.915C107.649 255.379 118.819 263.442 120.791 265.744C128.658 274.911 131.185 282.418 140.383 297.437C150.783 314.427 150.512 327.781 150.749 341.602C150.922 351.731 161.732 374.903 167.488 386.543C169.583 390.78 171.005 393.488 171.005 393.488Z" fill="url(#paint4_linear_1041_544)"/>
<path d="M89.8276 251.182C89.8276 251.182 89.9771 251.077 90.2589 250.914C95.6378 247.816 102.517 250.582 104.338 256.516C106.279 262.845 108.816 272.577 108.493 279.32C108.493 279.32 96.6033 263.24 89.2109 259.125L89.8276 251.182Z" fill="#030172"/>
<path d="M171.005 393.488L153.396 406.213C151.212 404.168 149.18 401.693 147.278 398.844C151.451 396.537 160.781 391.259 167.488 386.544C169.582 390.78 171.005 393.488 171.005 393.488Z" fill="#030172"/>
<path d="M91.5233 246.354L88.608 265.389C88.608 265.389 74.4691 280.014 48.2925 254.121C55.2382 248.873 57.8221 236.807 56.9528 229.022C56.9528 229.022 59.0143 230.241 62.1891 233.078C62.811 233.633 63.603 234.062 64.3829 234.588C71.2874 239.218 81.8581 245.229 91.5233 246.354Z" fill="#EBB088"/>
<path d="M91.5233 246.354L88.608 265.389C88.608 265.389 74.4691 280.014 48.2925 254.121C55.2382 248.873 57.8221 236.807 56.9528 229.022C56.9528 229.022 59.0143 230.241 62.1891 233.078C62.811 233.633 63.603 234.062 64.3829 234.588C71.2874 239.218 81.8581 245.229 91.5233 246.354Z" fill="url(#paint5_linear_1041_544)"/>
<path d="M90.8272 251.338L88.5223 265.168C75.8453 262.286 61.9649 254.807 55.6771 243.271C56.3574 243.752 57.091 244.255 57.8709 244.781C64.7754 249.409 81.162 250.213 90.8272 251.338Z" fill="url(#paint6_linear_1041_544)"/>
<path d="M65.6248 221.785C65.4753 222.005 61.3917 227.97 56.9782 229.092C56.9748 229.092 56.9731 229.095 56.9697 229.094C56.9576 229.076 56.9525 229.068 56.9525 229.068C56.913 227.516 56.9061 225.981 56.925 224.47C57.0831 224.476 61.2989 224.563 65.6248 221.785Z" fill="#341A1B"/>
<path d="M117.334 421.222C116.344 422.34 127.917 421.843 126.819 422.923C126.589 423.15 126.353 423.375 126.118 423.606C125.534 424.159 124.939 424.712 124.333 425.26C98.4964 448.526 50.5515 461.937 50.5515 461.937C45.8443 458.468 41.8414 454.13 38.4175 449.133C-3.602 387.801 19.5921 338.066 7.824 317.983C-5.52286 295.203 4.15271 274.043 19.6041 263.536C35.0537 253.034 50.4915 252.964 50.4915 252.964C59.217 261.481 69.5069 274.284 69.5069 274.284C69.5224 275.823 72.8612 284.754 72.9643 286.385C75.7319 330.329 103.457 389.034 113.876 411.426C115.818 415.601 117.334 421.222 117.334 421.222Z" fill="#341A1B"/>
<path d="M117.334 421.222C116.344 422.34 127.917 421.843 126.819 422.923C126.589 423.15 126.353 423.375 126.118 423.606C125.534 424.159 124.939 424.712 124.333 425.26C98.4964 448.526 50.5515 461.937 50.5515 461.937C45.8443 458.468 41.8414 454.13 38.4175 449.133C-3.602 387.801 19.5921 338.066 7.824 317.983C-5.52286 295.203 4.15271 274.043 19.6041 263.536C35.0537 253.034 50.4915 252.964 50.4915 252.964C59.217 261.481 69.5069 274.284 69.5069 274.284C69.5224 275.823 72.8612 284.754 72.9643 286.385C75.7319 330.329 103.457 389.034 113.876 411.426C115.818 415.601 117.334 421.222 117.334 421.222Z" fill="url(#paint7_linear_1041_544)"/>
<path d="M79.362 390.004C79.362 390.004 68.4169 415.064 43.2538 421.566L39.507 415.612C39.507 415.612 58.578 412.408 74.5431 386.231L79.362 390.004Z" fill="#023161"/>
<path d="M123.041 422.181C122.051 423.3 121.002 424.399 119.904 425.48C119.674 425.707 119.438 425.932 119.203 426.162C86.4672 369.634 67.4391 276.428 67.4391 276.428L73.3918 274.577C76.6731 326.711 123.041 422.181 123.041 422.181Z" fill="#023161"/>
<path d="M53.9257 247.181C53.9257 247.181 46.7377 244.853 39.6975 254.898C39.6975 254.898 49.3233 274.823 74.0052 281.191L73.2115 269.825C73.2115 269.825 59.3528 256.928 53.9257 247.181Z" fill="#03019B"/>
<path d="M245.375 241.448L241.35 237.277L188.262 248.332L168.593 328.564L172.968 330.423L226.614 312.744L245.375 241.448Z" fill="#324098"/>
<path d="M241.35 237.277L274.12 227.871L277.999 232.018L245.375 241.448L241.35 237.277Z" fill="#324098"/>
<path d="M192.603 251.008L171.948 331.871C171.948 331.871 206.724 323.91 226.615 316.751L245.377 241.448L192.603 251.008Z" fill="#010834"/>
<path d="M205.095 266.109L203.37 273.641L228.608 269.937L231.352 262.024L205.095 266.109Z" fill="#010834"/>
<path d="M245.375 241.448L280.905 231.198L258.075 307.102L226.614 316.751L245.375 241.448Z" fill="#010834"/>
<path d="M65.1352 371.654C74.9293 374.899 85.1048 376.207 95.0896 374.891C98.5753 374.432 101.998 373.681 105.344 372.692C140.598 362.274 167.643 325.154 173.271 316.571C179.217 307.504 174.681 292.1 169.082 287.96C158.96 280.471 130.09 310.56 102.52 321.754C83.0071 329.672 63.2196 305.744 54.1247 285.357C37.8195 248.809 8.87872 271.593 8.87872 271.593C-17.7205 299.977 19.671 356.618 65.1352 371.654Z" fill="#341A1B"/>
<path d="M65.1352 371.654C74.9293 374.899 85.1048 376.207 95.0896 374.891C98.5753 374.432 101.998 373.681 105.344 372.692C140.598 362.274 167.643 325.154 173.271 316.571C179.217 307.504 174.681 292.1 169.082 287.96C158.96 280.471 130.09 310.56 102.52 321.754C83.0071 329.672 63.2196 305.744 54.1247 285.357C37.8195 248.809 8.87872 271.593 8.87872 271.593C-17.7205 299.977 19.671 356.618 65.1352 371.654Z" fill="url(#paint8_linear_1041_544)"/>
<path d="M200.035 302.891C200.035 302.891 217.407 300.814 217.979 304.942C218.575 309.314 202.234 310.482 202.234 310.482C202.234 310.482 210.172 312.248 210.081 314.276C209.849 319.397 188.16 320.23 182.714 320.105C177.27 319.984 167.931 322.439 160.939 321.079C156.197 320.156 141.799 306.799 144.154 297.888C144.895 295.074 151.825 290.867 155.72 287.767C159.68 284.617 166.01 281.109 170.293 279.655C173.044 278.727 176.797 274.862 182.123 273.642L178.765 285.47C178.144 285.994 181.206 288.137 181.206 288.137C181.206 288.137 212.531 278.772 215.474 282.182C219.41 286.745 205.628 290.38 199.42 291.61C199.42 291.61 217.615 290.956 219.425 293.344C223.062 298.127 200.035 302.891 200.035 302.891Z" fill="#FFA283"/>
<path d="M271.682 262.199L273.631 255.418C273.631 255.418 277.254 262.112 274.591 269.451C271.928 276.792 269.949 286.215 268.838 290.698C267.724 295.182 267.26 304.87 264.318 307.095C261.375 309.318 256.712 308.656 251.129 306.497C245.545 304.337 245.063 301.195 248.468 300.384C251.873 299.573 261.117 297.625 261.117 297.625C261.117 297.625 258.439 296.38 251.117 295.641C243.793 294.902 243.972 292.009 248.863 289.537C253.754 287.063 264.74 287.098 264.74 287.098C264.74 287.098 255.951 285.1 250.771 283.962C245.59 282.825 248.557 276.888 257.131 277.415C265.704 277.943 267.315 277.505 267.315 277.505C267.315 277.505 264.106 274.077 257.748 272.971C251.39 271.864 247.784 268.896 251.024 266.236C254.262 263.577 270.165 267.403 270.165 267.403L271.682 262.199Z" fill="#FFA283"/>
<path d="M65.135 371.654C74.5684 375.62 84.3315 377.751 95.0894 374.889C98.4876 373.986 101.997 373.68 105.344 372.69C101.607 367.727 94.6256 361.328 83.3884 361.269C73.2644 361.22 67.9026 366.712 65.135 371.654Z" fill="#03019B"/>
<path d="M77.9759 317.083C80.7971 319.058 83.81 320.743 87.01 322.003C103.743 328.591 129.294 308.545 130.374 307.689C130.85 307.312 130.929 306.619 130.551 306.143C130.177 305.668 129.482 305.586 129.005 305.964C128.75 306.167 103.372 326.079 87.8163 319.953C65.3022 311.089 51.745 278.958 51.6102 278.634C51.3781 278.074 50.7329 277.806 50.1723 278.04C49.6119 278.272 49.3443 278.918 49.5781 279.478C50.061 280.651 60.1805 304.624 77.9759 317.083Z" fill="#03019B"/>
<path d="M54.6384 368.254C65.5252 374.264 75.4138 377.464 84.1616 377.796C99.357 378.371 114.869 371.168 125.206 365.023C136.357 358.393 144.067 351.527 144.144 351.458C144.598 351.052 144.636 350.357 144.23 349.903C143.825 349.451 143.129 349.413 142.676 349.817C142.375 350.085 112.357 376.659 84.2458 375.595C56.1125 374.53 22.4301 341.528 22.0916 341.195C21.6621 340.767 20.9629 340.77 20.5352 341.203C20.1074 341.634 20.1108 342.332 20.5438 342.758C20.6297 342.844 29.2452 351.327 41.2899 359.824C45.8871 363.071 50.3401 365.882 54.6384 368.254Z" fill="#03019B"/>
<path d="M61.2754 175.772C82.1366 168.953 102.217 158.905 112.769 205.394C118.494 230.62 111.68 247.874 90.8189 254.693C71.3853 261.046 48.2239 254.326 39.0192 234.638C38.5483 234.977 38.0348 235.244 37.4789 235.426C32.8431 236.941 27.0886 232.063 24.6259 224.53C22.1634 216.996 23.9251 209.661 28.5608 208.145C30.6508 207.462 32.9662 208.082 35.1068 209.655C36.9199 194.027 46.6005 180.57 61.2754 175.772Z" fill="#FCA68C"/>
<path d="M61.2754 175.772C82.1366 168.953 102.217 158.905 112.769 205.394C118.494 230.62 111.68 247.874 90.8189 254.693C71.3853 261.046 48.2239 254.326 39.0192 234.638C38.5483 234.977 38.0348 235.244 37.4789 235.426C32.8431 236.941 27.0886 232.063 24.6259 224.53C22.1634 216.996 23.9251 209.661 28.5608 208.145C30.6508 207.462 32.9662 208.082 35.1068 209.655C36.9199 194.027 46.6005 180.57 61.2754 175.772Z" fill="url(#paint9_linear_1041_544)"/>
<path d="M46.0499 219.05C40.8411 220.753 35.3921 208.705 27.4119 208.383C31.0728 203.086 38.034 199.388 43.7278 195.541C39.3808 208.493 43.7927 212.146 46.0499 219.05Z" fill="#0F1641"/>
<path d="M102.23 165.87C66.5496 158.565 51.8513 165.421 21.2169 190.418C24.4928 167.281 33.0618 154.414 56.1449 146.868C80.1495 140.957 91.2606 147.854 102.23 165.87Z" fill="url(#paint10_linear_1041_544)"/>
<path d="M17.5622 196.001C38.4869 159.352 98.0839 154.372 107.22 168.109C113.085 180.128 110.737 183.605 107.112 186.726C71.1396 183.957 57.6278 190.143 22.6454 211.55C18.1546 206.796 15.923 200.277 17.5622 196.001Z" fill="url(#paint11_linear_1041_544)"/>
<path d="M90.6035 221.57C95.6627 221.323 95.8089 215.645 90.951 211.345" stroke="#B24E3C" stroke-width="1.2663"/>
<path d="M82.3799 231.827C85.3717 235.738 90.899 235.939 96.2605 232.246" stroke="#B24E3C" stroke-width="1.2663"/>
<path d="M20.9814 189.47C40.8616 166.614 73.1577 157.128 100.161 163.854" stroke="#2A00A3" stroke-width="1.78419" stroke-linecap="round"/>
<path d="M30.9689 217.218C32.6659 217.546 33.3393 218.299 33.7612 221.236C34.6262 225.39 36.9836 226.564 36.682 228.662C36.2669 231.384 34.5851 231.32 32.5276 229.527C29.9754 227.303 26.9344 222.974 27.2514 219.419C27.4325 217.388 28.6317 216.827 30.9689 217.218Z" fill="#E86D60"/>
<path d="M241.439 210.899H246.049L236.253 247.778H231.643L241.439 210.899Z" fill="#010834"/>
<circle cx="244.32" cy="209.747" r="6.91472" fill="#FFBB39"/>
<g filter="url(#filter1_d_1041_544)">
<mask id="path-75-outside-1_1041_544" maskUnits="userSpaceOnUse" x="53.5434" y="27.3103" width="217.316" height="39.1259" fill="black">
<rect fill="white" x="53.5434" y="27.3103" width="217.316" height="39.1259"/>
<path d="M86.0018 64.4799H82.682L81.9918 61.2327L81.3016 57.9856L80.6114 54.7384L79.9212 51.4912L79.231 48.2441H75.9113H72.5916H69.2719H65.9522L66.6424 51.4912L67.3326 54.7384L68.0228 57.9856L68.713 61.2327L69.4032 64.4799H66.0835H62.7638L62.0736 61.2327L61.3834 57.9856L60.6932 54.7384L60.003 51.4912L59.3128 48.2441L58.6226 44.9969L57.9323 41.7497L57.2421 38.5026L56.5519 35.2554L55.8617 32.0083L55.1715 28.7611H58.4912H61.8109H65.1306H68.4504H71.7701H75.0898H78.4095L79.0997 32.0083H82.4194L83.1096 35.2554L83.7998 38.5026L84.49 41.7497L85.1802 44.9969H81.8605L82.5507 48.2441H85.8704L86.5606 51.4912L87.2508 54.7384L87.941 57.9856L88.6313 61.2327L89.3215 64.4799H86.0018ZM74.5309 41.7497H77.8506L77.1604 38.5026L76.4702 35.2554H73.1505H69.8308H66.5111H63.1914L63.8816 38.5026L64.5718 41.7497H67.8915H71.2112H74.5309ZM117.074 64.4799H113.755H110.435H107.115H103.795H100.476L99.7855 61.2327H96.4658L95.7756 57.9856L95.0854 54.7384L94.3952 51.4912L93.7049 48.2441L93.0147 44.9969L92.3245 41.7497L91.6343 38.5026L90.9441 35.2554L90.2539 32.0083H93.5736L92.8834 28.7611H96.2031H99.5228H102.843H106.162H109.482H112.802L113.492 32.0083H116.812L117.502 35.2554L118.192 38.5026L118.882 41.7497L119.572 44.9969L120.263 48.2441L120.953 51.4912L121.643 54.7384L122.333 57.9856L123.023 61.2327H119.704L120.394 64.4799H117.074ZM112.374 57.9856H115.694L115.004 54.7384L114.313 51.4912L113.623 48.2441L112.933 44.9969L112.243 41.7497L111.553 38.5026L110.862 35.2554H107.543H104.223H100.903H97.5835L98.2737 38.5026L98.9639 41.7497L99.6542 44.9969L100.344 48.2441L101.035 51.4912L101.725 54.7384L102.415 57.9856H105.735H109.054H112.374ZM148.147 64.4799H144.827H141.507H138.188H134.868H131.548H128.228L127.538 61.2327L126.848 57.9856L126.158 54.7384L125.468 51.4912L124.777 48.2441L124.087 44.9969L123.397 41.7497L122.707 38.5026L122.017 35.2554L121.326 32.0083L120.636 28.7611H123.956H127.276H130.595H133.915H137.235H140.554H143.874L144.564 32.0083H147.884L148.574 35.2554L149.264 38.5026L149.955 41.7497L150.645 44.9969H147.325L148.015 48.2441H151.335L152.025 51.4912L152.716 54.7384L153.406 57.9856L154.096 61.2327H150.776L151.466 64.4799H148.147ZM143.447 57.9856H146.766L146.076 54.7384L145.386 51.4912L144.696 48.2441H141.376H138.056H134.737H131.417L132.107 51.4912L132.797 54.7384L133.487 57.9856H136.807H140.127H143.447ZM139.996 41.7497H143.315L142.625 38.5026L141.935 35.2554H138.615H135.295H131.976H128.656L129.346 38.5026L130.036 41.7497H133.356H136.676H139.996ZM182.539 64.4799H179.219H175.899H172.58H169.26H165.94L165.25 61.2327H161.93L161.24 57.9856L160.55 54.7384L159.86 51.4912L159.17 48.2441L158.479 44.9969L157.789 41.7497L157.099 38.5026L156.409 35.2554L155.719 32.0083H159.038L158.348 28.7611H161.668H164.987H168.307H171.627H174.947H178.266L178.957 32.0083H182.276L182.966 35.2554L183.657 38.5026L184.347 41.7497L185.037 44.9969L185.727 48.2441L186.417 51.4912L187.108 54.7384L187.798 57.9856L188.488 61.2327H185.168L185.859 64.4799H182.539ZM177.839 57.9856H181.158L180.468 54.7384L179.778 51.4912L179.088 48.2441L178.398 44.9969L177.707 41.7497L177.017 38.5026L176.327 35.2554H173.007H169.688H166.368H163.048L163.738 38.5026L164.429 41.7497L165.119 44.9969L165.809 48.2441L166.499 51.4912L167.189 54.7384L167.88 57.9856H171.199H174.519H177.839ZM206.972 64.4799H203.652L202.962 61.2327L202.272 57.9856L201.582 54.7384L200.891 51.4912L200.201 48.2441L199.511 44.9969L198.821 41.7497L198.131 38.5026L197.44 35.2554H194.121H190.801H187.481L186.791 32.0083L186.101 28.7611H189.421H192.74H196.06H199.38H202.699H206.019H209.339H212.659L213.349 32.0083L214.039 35.2554H210.719H207.4H204.08L204.77 38.5026L205.46 41.7497L206.15 44.9969L206.841 48.2441L207.531 51.4912L208.221 54.7384L208.911 57.9856L209.601 61.2327L210.292 64.4799H206.972ZM234.725 64.4799H231.405H228.085H224.766L224.075 61.2327L223.385 57.9856H226.705L226.015 54.7384L225.324 51.4912L224.634 48.2441L223.944 44.9969L223.254 41.7497L222.564 38.5026L221.873 35.2554H218.554L217.864 32.0083L217.173 28.7611H220.493H223.813H227.132H230.452L231.142 32.0083L231.833 35.2554H228.513L229.203 38.5026L229.893 41.7497L230.583 44.9969L231.274 48.2441L231.964 51.4912L232.654 54.7384L233.344 57.9856H236.664L237.354 61.2327L238.044 64.4799H234.725ZM262.477 64.4799H259.158H255.838H252.518H249.199L248.508 61.2327H245.189L244.499 57.9856L243.808 54.7384L243.118 51.4912L242.428 48.2441L241.738 44.9969L241.047 41.7497L240.357 38.5026L239.667 35.2554L238.977 32.0083H242.297L241.606 28.7611H244.926H248.246H251.566H254.885H258.205L258.895 32.0083H262.215L262.905 35.2554L263.595 38.5026H260.276H256.956L256.266 35.2554H252.946H249.626H246.307L246.997 38.5026L247.687 41.7497L248.377 44.9969L249.067 48.2441L249.758 51.4912L250.448 54.7384L251.138 57.9856H254.458H257.777H261.097L260.407 54.7384H263.727H267.046L267.736 57.9856L268.427 61.2327H265.107L265.797 64.4799H262.477Z"/>
</mask>
<path d="M86.0018 64.4799H82.682L81.9918 61.2327L81.3016 57.9856L80.6114 54.7384L79.9212 51.4912L79.231 48.2441H75.9113H72.5916H69.2719H65.9522L66.6424 51.4912L67.3326 54.7384L68.0228 57.9856L68.713 61.2327L69.4032 64.4799H66.0835H62.7638L62.0736 61.2327L61.3834 57.9856L60.6932 54.7384L60.003 51.4912L59.3128 48.2441L58.6226 44.9969L57.9323 41.7497L57.2421 38.5026L56.5519 35.2554L55.8617 32.0083L55.1715 28.7611H58.4912H61.8109H65.1306H68.4504H71.7701H75.0898H78.4095L79.0997 32.0083H82.4194L83.1096 35.2554L83.7998 38.5026L84.49 41.7497L85.1802 44.9969H81.8605L82.5507 48.2441H85.8704L86.5606 51.4912L87.2508 54.7384L87.941 57.9856L88.6313 61.2327L89.3215 64.4799H86.0018ZM74.5309 41.7497H77.8506L77.1604 38.5026L76.4702 35.2554H73.1505H69.8308H66.5111H63.1914L63.8816 38.5026L64.5718 41.7497H67.8915H71.2112H74.5309ZM117.074 64.4799H113.755H110.435H107.115H103.795H100.476L99.7855 61.2327H96.4658L95.7756 57.9856L95.0854 54.7384L94.3952 51.4912L93.7049 48.2441L93.0147 44.9969L92.3245 41.7497L91.6343 38.5026L90.9441 35.2554L90.2539 32.0083H93.5736L92.8834 28.7611H96.2031H99.5228H102.843H106.162H109.482H112.802L113.492 32.0083H116.812L117.502 35.2554L118.192 38.5026L118.882 41.7497L119.572 44.9969L120.263 48.2441L120.953 51.4912L121.643 54.7384L122.333 57.9856L123.023 61.2327H119.704L120.394 64.4799H117.074ZM112.374 57.9856H115.694L115.004 54.7384L114.313 51.4912L113.623 48.2441L112.933 44.9969L112.243 41.7497L111.553 38.5026L110.862 35.2554H107.543H104.223H100.903H97.5835L98.2737 38.5026L98.9639 41.7497L99.6542 44.9969L100.344 48.2441L101.035 51.4912L101.725 54.7384L102.415 57.9856H105.735H109.054H112.374ZM148.147 64.4799H144.827H141.507H138.188H134.868H131.548H128.228L127.538 61.2327L126.848 57.9856L126.158 54.7384L125.468 51.4912L124.777 48.2441L124.087 44.9969L123.397 41.7497L122.707 38.5026L122.017 35.2554L121.326 32.0083L120.636 28.7611H123.956H127.276H130.595H133.915H137.235H140.554H143.874L144.564 32.0083H147.884L148.574 35.2554L149.264 38.5026L149.955 41.7497L150.645 44.9969H147.325L148.015 48.2441H151.335L152.025 51.4912L152.716 54.7384L153.406 57.9856L154.096 61.2327H150.776L151.466 64.4799H148.147ZM143.447 57.9856H146.766L146.076 54.7384L145.386 51.4912L144.696 48.2441H141.376H138.056H134.737H131.417L132.107 51.4912L132.797 54.7384L133.487 57.9856H136.807H140.127H143.447ZM139.996 41.7497H143.315L142.625 38.5026L141.935 35.2554H138.615H135.295H131.976H128.656L129.346 38.5026L130.036 41.7497H133.356H136.676H139.996ZM182.539 64.4799H179.219H175.899H172.58H169.26H165.94L165.25 61.2327H161.93L161.24 57.9856L160.55 54.7384L159.86 51.4912L159.17 48.2441L158.479 44.9969L157.789 41.7497L157.099 38.5026L156.409 35.2554L155.719 32.0083H159.038L158.348 28.7611H161.668H164.987H168.307H171.627H174.947H178.266L178.957 32.0083H182.276L182.966 35.2554L183.657 38.5026L184.347 41.7497L185.037 44.9969L185.727 48.2441L186.417 51.4912L187.108 54.7384L187.798 57.9856L188.488 61.2327H185.168L185.859 64.4799H182.539ZM177.839 57.9856H181.158L180.468 54.7384L179.778 51.4912L179.088 48.2441L178.398 44.9969L177.707 41.7497L177.017 38.5026L176.327 35.2554H173.007H169.688H166.368H163.048L163.738 38.5026L164.429 41.7497L165.119 44.9969L165.809 48.2441L166.499 51.4912L167.189 54.7384L167.88 57.9856H171.199H174.519H177.839ZM206.972 64.4799H203.652L202.962 61.2327L202.272 57.9856L201.582 54.7384L200.891 51.4912L200.201 48.2441L199.511 44.9969L198.821 41.7497L198.131 38.5026L197.44 35.2554H194.121H190.801H187.481L186.791 32.0083L186.101 28.7611H189.421H192.74H196.06H199.38H202.699H206.019H209.339H212.659L213.349 32.0083L214.039 35.2554H210.719H207.4H204.08L204.77 38.5026L205.46 41.7497L206.15 44.9969L206.841 48.2441L207.531 51.4912L208.221 54.7384L208.911 57.9856L209.601 61.2327L210.292 64.4799H206.972ZM234.725 64.4799H231.405H228.085H224.766L224.075 61.2327L223.385 57.9856H226.705L226.015 54.7384L225.324 51.4912L224.634 48.2441L223.944 44.9969L223.254 41.7497L222.564 38.5026L221.873 35.2554H218.554L217.864 32.0083L217.173 28.7611H220.493H223.813H227.132H230.452L231.142 32.0083L231.833 35.2554H228.513L229.203 38.5026L229.893 41.7497L230.583 44.9969L231.274 48.2441L231.964 51.4912L232.654 54.7384L233.344 57.9856H236.664L237.354 61.2327L238.044 64.4799H234.725ZM262.477 64.4799H259.158H255.838H252.518H249.199L248.508 61.2327H245.189L244.499 57.9856L243.808 54.7384L243.118 51.4912L242.428 48.2441L241.738 44.9969L241.047 41.7497L240.357 38.5026L239.667 35.2554L238.977 32.0083H242.297L241.606 28.7611H244.926H248.246H251.566H254.885H258.205L258.895 32.0083H262.215L262.905 35.2554L263.595 38.5026H260.276H256.956L256.266 35.2554H252.946H249.626H246.307L246.997 38.5026L247.687 41.7497L248.377 44.9969L249.067 48.2441L249.758 51.4912L250.448 54.7384L251.138 57.9856H254.458H257.777H261.097L260.407 54.7384H263.727H267.046L267.736 57.9856L268.427 61.2327H265.107L265.797 64.4799H262.477Z" fill="white"/>
<path d="M82.682 64.4799H81.6332L81.8512 65.5059H82.9001L82.682 64.4799ZM79.231 48.2441H80.2799L80.0618 47.2181H79.0129L79.231 48.2441ZM65.9522 48.2441L65.7341 47.2181H64.6852L64.9033 48.2441H65.9522ZM69.4032 64.4799L69.6213 65.5059H70.6702L70.4521 64.4799H69.4032ZM62.7638 64.4799H61.7149L61.933 65.5059H62.9819L62.7638 64.4799ZM55.1715 28.7611L54.9534 27.7351H53.9046L54.1226 28.7611H55.1715ZM78.4095 28.7611H79.4584L79.2403 27.7351H78.1914L78.4095 28.7611ZM79.0997 32.0082H78.0508L78.2689 33.0342H79.3178L79.0997 32.0082ZM82.4194 32.0082H83.4683L83.2502 30.9823H82.2013L82.4194 32.0082ZM85.1802 44.9969L85.3983 46.0229H86.4472L86.2291 44.9969H85.1802ZM81.8605 44.9969L81.6424 43.971H80.5936L80.8116 44.9969H81.8605ZM82.5507 48.2441H81.5018L81.7199 49.27H82.7688L82.5507 48.2441ZM85.8704 48.2441H86.9193L86.7012 47.2181H85.6524L85.8704 48.2441ZM89.3215 64.4799L89.5395 65.5059H90.5884L90.3703 64.4799H89.3215ZM77.8506 41.7497L78.0687 42.7757H79.1175L78.8995 41.7497H77.8506ZM76.4702 35.2554H77.5191L77.301 34.2295H76.2521L76.4702 35.2554ZM63.1914 35.2554L62.9733 34.2295H61.9244L62.1425 35.2554H63.1914ZM64.5718 41.7497H63.5229L63.741 42.7757H64.7898L64.5718 41.7497ZM86.0018 64.4799L85.7837 63.4539H82.464L82.682 64.4799L82.9001 65.5059H86.2198L86.0018 64.4799ZM82.682 64.4799H83.7309L83.0407 61.2327H81.9918H80.943L81.6332 64.4799H82.682ZM81.9918 61.2327H83.0407L82.3505 57.9856H81.3016H80.2528L80.943 61.2327H81.9918ZM81.3016 57.9856H82.3505L81.6603 54.7384H80.6114H79.5626L80.2528 57.9856H81.3016ZM80.6114 54.7384H81.6603L80.9701 51.4912H79.9212H78.8723L79.5626 54.7384H80.6114ZM79.9212 51.4912H80.9701L80.2799 48.2441H79.231H78.1821L78.8723 51.4912H79.9212ZM79.231 48.2441L79.0129 47.2181H75.6932L75.9113 48.2441L76.1294 49.27H79.4491L79.231 48.2441ZM75.9113 48.2441L75.6932 47.2181H72.3735L72.5916 48.2441L72.8097 49.27H76.1294L75.9113 48.2441ZM72.5916 48.2441L72.3735 47.2181H69.0538L69.2719 48.2441L69.49 49.27H72.8097L72.5916 48.2441ZM69.2719 48.2441L69.0538 47.2181H65.7341L65.9522 48.2441L66.1703 49.27H69.49L69.2719 48.2441ZM65.9522 48.2441H64.9033L65.5935 51.4912H66.6424H67.6913L67.0011 48.2441H65.9522ZM66.6424 51.4912H65.5935L66.2837 54.7384H67.3326H68.3815L67.6913 51.4912H66.6424ZM67.3326 54.7384H66.2837L66.9739 57.9856H68.0228H69.0717L68.3815 54.7384H67.3326ZM68.0228 57.9856H66.9739L67.6641 61.2327H68.713H69.7619L69.0717 57.9856H68.0228ZM68.713 61.2327H67.6641L68.3543 64.4799H69.4032H70.4521L69.7619 61.2327H68.713ZM69.4032 64.4799L69.1851 63.4539H65.8654L66.0835 64.4799L66.3016 65.5059H69.6213L69.4032 64.4799ZM66.0835 64.4799L65.8654 63.4539H62.5457L62.7638 64.4799L62.9819 65.5059H66.3016L66.0835 64.4799ZM62.7638 64.4799H63.8127L63.1225 61.2327H62.0736H61.0247L61.7149 64.4799H62.7638ZM62.0736 61.2327H63.1225L62.4323 57.9856H61.3834H60.3345L61.0247 61.2327H62.0736ZM61.3834 57.9856H62.4323L61.742 54.7384H60.6932H59.6443L60.3345 57.9856H61.3834ZM60.6932 54.7384H61.742L61.0518 51.4912H60.003H58.9541L59.6443 54.7384H60.6932ZM60.003 51.4912H61.0518L60.3616 48.2441H59.3128H58.2639L58.9541 51.4912H60.003ZM59.3128 48.2441H60.3616L59.6714 44.9969H58.6226H57.5737L58.2639 48.2441H59.3128ZM58.6226 44.9969H59.6714L58.9812 41.7497H57.9323H56.8835L57.5737 44.9969H58.6226ZM57.9323 41.7497H58.9812L58.291 38.5026H57.2421H56.1933L56.8835 41.7497H57.9323ZM57.2421 38.5026H58.291L57.6008 35.2554H56.5519H55.5031L56.1933 38.5026H57.2421ZM56.5519 35.2554H57.6008L56.9106 32.0082H55.8617H54.8129L55.5031 35.2554H56.5519ZM55.8617 32.0082H56.9106L56.2204 28.7611H55.1715H54.1226L54.8129 32.0082H55.8617ZM55.1715 28.7611L55.3896 29.787H58.7093L58.4912 28.7611L58.2732 27.7351H54.9534L55.1715 28.7611ZM58.4912 28.7611L58.7093 29.787H62.029L61.8109 28.7611L61.5929 27.7351H58.2732L58.4912 28.7611ZM61.8109 28.7611L62.029 29.787H65.3487L65.1306 28.7611L64.9126 27.7351H61.5929L61.8109 28.7611ZM65.1306 28.7611L65.3487 29.787H68.6684L68.4504 28.7611L68.2323 27.7351H64.9126L65.1306 28.7611ZM68.4504 28.7611L68.6684 29.787H71.9881L71.7701 28.7611L71.552 27.7351H68.2323L68.4504 28.7611ZM71.7701 28.7611L71.9881 29.787H75.3078L75.0898 28.7611L74.8717 27.7351H71.552L71.7701 28.7611ZM75.0898 28.7611L75.3078 29.787H78.6276L78.4095 28.7611L78.1914 27.7351H74.8717L75.0898 28.7611ZM78.4095 28.7611H77.3606L78.0508 32.0082H79.0997H80.1486L79.4584 28.7611H78.4095ZM79.0997 32.0082L79.3178 33.0342H82.6375L82.4194 32.0082L82.2013 30.9823H78.8816L79.0997 32.0082ZM82.4194 32.0082H81.3705L82.0607 35.2554H83.1096H84.1585L83.4683 32.0082H82.4194ZM83.1096 35.2554H82.0607L82.7509 38.5026H83.7998H84.8487L84.1585 35.2554H83.1096ZM83.7998 38.5026H82.7509L83.4411 41.7497H84.49H85.5389L84.8487 38.5026H83.7998ZM84.49 41.7497H83.4411L84.1313 44.9969H85.1802H86.2291L85.5389 41.7497H84.49ZM85.1802 44.9969L84.9622 43.971H81.6424L81.8605 44.9969L82.0786 46.0229H85.3983L85.1802 44.9969ZM81.8605 44.9969H80.8116L81.5018 48.2441H82.5507H83.5996L82.9094 44.9969H81.8605ZM82.5507 48.2441L82.7688 49.27H86.0885L85.8704 48.2441L85.6524 47.2181H82.3326L82.5507 48.2441ZM85.8704 48.2441H84.8216L85.5118 51.4912H86.5606H87.6095L86.9193 48.2441H85.8704ZM86.5606 51.4912H85.5118L86.202 54.7384H87.2508H88.2997L87.6095 51.4912H86.5606ZM87.2508 54.7384H86.202L86.8922 57.9856H87.941H88.9899L88.2997 54.7384H87.2508ZM87.941 57.9856H86.8922L87.5824 61.2327H88.6313H89.6801L88.9899 57.9856H87.941ZM88.6313 61.2327H87.5824L88.2726 64.4799H89.3215H90.3703L89.6801 61.2327H88.6313ZM89.3215 64.4799L89.1034 63.4539H85.7837L86.0018 64.4799L86.2198 65.5059H89.5395L89.3215 64.4799ZM74.5309 41.7497L74.749 42.7757H78.0687L77.8506 41.7497L77.6325 40.7238H74.3128L74.5309 41.7497ZM77.8506 41.7497H78.8995L78.2093 38.5026H77.1604H76.1115L76.8017 41.7497H77.8506ZM77.1604 38.5026H78.2093L77.5191 35.2554H76.4702H75.4213L76.1115 38.5026H77.1604ZM76.4702 35.2554L76.2521 34.2295H72.9324L73.1505 35.2554L73.3686 36.2814H76.6883L76.4702 35.2554ZM73.1505 35.2554L72.9324 34.2295H69.6127L69.8308 35.2554L70.0488 36.2814H73.3686L73.1505 35.2554ZM69.8308 35.2554L69.6127 34.2295H66.293L66.5111 35.2554L66.7291 36.2814H70.0488L69.8308 35.2554ZM66.5111 35.2554L66.293 34.2295H62.9733L63.1914 35.2554L63.4094 36.2814H66.7291L66.5111 35.2554ZM63.1914 35.2554H62.1425L62.8327 38.5026H63.8816H64.9304L64.2402 35.2554H63.1914ZM63.8816 38.5026H62.8327L63.5229 41.7497H64.5718H65.6206L64.9304 38.5026H63.8816ZM64.5718 41.7497L64.7898 42.7757H68.1095L67.8915 41.7497L67.6734 40.7238H64.3537L64.5718 41.7497ZM67.8915 41.7497L68.1095 42.7757H71.4293L71.2112 41.7497L70.9931 40.7238H67.6734L67.8915 41.7497ZM71.2112 41.7497L71.4293 42.7757H74.749L74.5309 41.7497L74.3128 40.7238H70.9931L71.2112 41.7497ZM100.476 64.4799H99.4268L99.6449 65.5059H100.694L100.476 64.4799ZM99.7855 61.2327H100.834L100.616 60.2068H99.5674L99.7855 61.2327ZM96.4658 61.2327H95.4169L95.635 62.2587H96.6838L96.4658 61.2327ZM90.2539 32.0082L90.0358 30.9823H88.987L89.205 32.0082H90.2539ZM93.5736 32.0082L93.7917 33.0342H94.8406L94.6225 32.0082H93.5736ZM92.8834 28.7611L92.6653 27.7351H91.6165L91.8345 28.7611H92.8834ZM112.802 28.7611H113.851L113.632 27.7351H112.584L112.802 28.7611ZM113.492 32.0082H112.443L112.661 33.0342H113.71L113.492 32.0082ZM116.812 32.0082H117.86L117.642 30.9823H116.594L116.812 32.0082ZM123.023 61.2327L123.242 62.2587H124.29L124.072 61.2327H123.023ZM119.704 61.2327L119.486 60.2068H118.437L118.655 61.2327H119.704ZM120.394 64.4799L120.612 65.5059H121.661L121.443 64.4799H120.394ZM115.694 57.9856L115.912 59.0115H116.961L116.743 57.9856H115.694ZM110.862 35.2554H111.911L111.693 34.2295H110.644L110.862 35.2554ZM97.5835 35.2554L97.3655 34.2295H96.3166L96.5347 35.2554H97.5835ZM102.415 57.9856H101.366L101.584 59.0115H102.633L102.415 57.9856ZM117.074 64.4799L116.856 63.4539H113.536L113.755 64.4799L113.973 65.5059H117.292L117.074 64.4799ZM113.755 64.4799L113.536 63.4539H110.217L110.435 64.4799L110.653 65.5059H113.973L113.755 64.4799ZM110.435 64.4799L110.217 63.4539H106.897L107.115 64.4799L107.333 65.5059H110.653L110.435 64.4799ZM107.115 64.4799L106.897 63.4539H103.577L103.795 64.4799L104.013 65.5059H107.333L107.115 64.4799ZM103.795 64.4799L103.577 63.4539H100.258L100.476 64.4799L100.694 65.5059H104.013L103.795 64.4799ZM100.476 64.4799H101.525L100.834 61.2327H99.7855H98.7366L99.4268 64.4799H100.476ZM99.7855 61.2327L99.5674 60.2068H96.2477L96.4658 61.2327L96.6838 62.2587H100.004L99.7855 61.2327ZM96.4658 61.2327H97.5146L96.8244 57.9856H95.7756H94.7267L95.4169 61.2327H96.4658ZM95.7756 57.9856H96.8244L96.1342 54.7384H95.0854H94.0365L94.7267 57.9856H95.7756ZM95.0854 54.7384H96.1342L95.444 51.4912H94.3951H93.3463L94.0365 54.7384H95.0854ZM94.3951 51.4912H95.444L94.7538 48.2441H93.7049H92.6561L93.3463 51.4912H94.3951ZM93.7049 48.2441H94.7538L94.0636 44.9969H93.0147H91.9659L92.6561 48.2441H93.7049ZM93.0147 44.9969H94.0636L93.3734 41.7497H92.3245H91.2757L91.9659 44.9969H93.0147ZM92.3245 41.7497H93.3734L92.6832 38.5026H91.6343H90.5854L91.2757 41.7497H92.3245ZM91.6343 38.5026H92.6832L91.993 35.2554H90.9441H89.8952L90.5854 38.5026H91.6343ZM90.9441 35.2554H91.993L91.3028 32.0082H90.2539H89.205L89.8952 35.2554H90.9441ZM90.2539 32.0082L90.472 33.0342H93.7917L93.5736 32.0082L93.3555 30.9823H90.0358L90.2539 32.0082ZM93.5736 32.0082H94.6225L93.9323 28.7611H92.8834H91.8345L92.5247 32.0082H93.5736ZM92.8834 28.7611L93.1015 29.787H96.4212L96.2031 28.7611L95.9851 27.7351H92.6653L92.8834 28.7611ZM96.2031 28.7611L96.4212 29.787H99.7409L99.5228 28.7611L99.3048 27.7351H95.9851L96.2031 28.7611ZM99.5228 28.7611L99.7409 29.787H103.061L102.843 28.7611L102.624 27.7351H99.3048L99.5228 28.7611ZM102.843 28.7611L103.061 29.787H106.38L106.162 28.7611L105.944 27.7351H102.624L102.843 28.7611ZM106.162 28.7611L106.38 29.787H109.7L109.482 28.7611L109.264 27.7351H105.944L106.162 28.7611ZM109.482 28.7611L109.7 29.787H113.02L112.802 28.7611L112.584 27.7351H109.264L109.482 28.7611ZM112.802 28.7611H111.753L112.443 32.0082H113.492H114.541L113.851 28.7611H112.802ZM113.492 32.0082L113.71 33.0342H117.03L116.812 32.0082L116.594 30.9823H113.274L113.492 32.0082ZM116.812 32.0082H115.763L116.453 35.2554H117.502H118.551L117.86 32.0082H116.812ZM117.502 35.2554H116.453L117.143 38.5026H118.192H119.241L118.551 35.2554H117.502ZM118.192 38.5026H117.143L117.833 41.7497H118.882H119.931L119.241 38.5026H118.192ZM118.882 41.7497H117.833L118.524 44.9969H119.572H120.621L119.931 41.7497H118.882ZM119.572 44.9969H118.524L119.214 48.2441H120.263H121.311L120.621 44.9969H119.572ZM120.263 48.2441H119.214L119.904 51.4912H120.953H122.002L121.311 48.2441H120.263ZM120.953 51.4912H119.904L120.594 54.7384H121.643H122.692L122.002 51.4912H120.953ZM121.643 54.7384H120.594L121.284 57.9856H122.333H123.382L122.692 54.7384H121.643ZM122.333 57.9856H121.284L121.975 61.2327H123.023H124.072L123.382 57.9856H122.333ZM123.023 61.2327L122.805 60.2068H119.486L119.704 61.2327L119.922 62.2587H123.242L123.023 61.2327ZM119.704 61.2327H118.655L119.345 64.4799H120.394H121.443L120.753 61.2327H119.704ZM120.394 64.4799L120.176 63.4539H116.856L117.074 64.4799L117.292 65.5059H120.612L120.394 64.4799ZM112.374 57.9856L112.592 59.0115H115.912L115.694 57.9856L115.476 56.9596H112.156L112.374 57.9856ZM115.694 57.9856H116.743L116.052 54.7384H115.004H113.955L114.645 57.9856H115.694ZM115.004 54.7384H116.052L115.362 51.4912H114.313H113.265L113.955 54.7384H115.004ZM114.313 51.4912H115.362L114.672 48.2441H113.623H112.574L113.265 51.4912H114.313ZM113.623 48.2441H114.672L113.982 44.9969H112.933H111.884L112.574 48.2441H113.623ZM112.933 44.9969H113.982L113.292 41.7497H112.243H111.194L111.884 44.9969H112.933ZM112.243 41.7497H113.292L112.601 38.5026H111.553H110.504L111.194 41.7497H112.243ZM111.553 38.5026H112.601L111.911 35.2554H110.862H109.813L110.504 38.5026H111.553ZM110.862 35.2554L110.644 34.2295H107.325L107.543 35.2554L107.761 36.2814H111.08L110.862 35.2554ZM107.543 35.2554L107.325 34.2295H104.005L104.223 35.2554L104.441 36.2814H107.761L107.543 35.2554ZM104.223 35.2554L104.005 34.2295H100.685L100.903 35.2554L101.121 36.2814H104.441L104.223 35.2554ZM100.903 35.2554L100.685 34.2295H97.3655L97.5835 35.2554L97.8016 36.2814H101.121L100.903 35.2554ZM97.5835 35.2554H96.5347L97.2249 38.5026H98.2737H99.3226L98.6324 35.2554H97.5835ZM98.2737 38.5026H97.2249L97.9151 41.7497H98.9639H100.013L99.3226 38.5026H98.2737ZM98.9639 41.7497H97.9151L98.6053 44.9969H99.6542H100.703L100.013 41.7497H98.9639ZM99.6542 44.9969H98.6053L99.2955 48.2441H100.344H101.393L100.703 44.9969H99.6542ZM100.344 48.2441H99.2955L99.9857 51.4912H101.035H102.083L101.393 48.2441H100.344ZM101.035 51.4912H99.9857L100.676 54.7384H101.725H102.774L102.083 51.4912H101.035ZM101.725 54.7384H100.676L101.366 57.9856H102.415H103.464L102.774 54.7384H101.725ZM102.415 57.9856L102.633 59.0115H105.953L105.735 57.9856L105.517 56.9596H102.197L102.415 57.9856ZM105.735 57.9856L105.953 59.0115H109.272L109.054 57.9856L108.836 56.9596H105.517L105.735 57.9856ZM109.054 57.9856L109.272 59.0115H112.592L112.374 57.9856L112.156 56.9596H108.836L109.054 57.9856ZM128.228 64.4799H127.18L127.398 65.5059H128.447L128.228 64.4799ZM120.636 28.7611L120.418 27.7351H119.369L119.587 28.7611H120.636ZM143.874 28.7611H144.923L144.705 27.7351H143.656L143.874 28.7611ZM144.564 32.0082H143.515L143.734 33.0342H144.782L144.564 32.0082ZM147.884 32.0082H148.933L148.715 30.9823H147.666L147.884 32.0082ZM150.645 44.9969L150.863 46.0229H151.912L151.694 44.9969H150.645ZM147.325 44.9969L147.107 43.971H146.058L146.276 44.9969H147.325ZM148.015 48.2441H146.967L147.185 49.27H148.233L148.015 48.2441ZM151.335 48.2441H152.384L152.166 47.2181H151.117L151.335 48.2441ZM154.096 61.2327L154.314 62.2587H155.363L155.145 61.2327H154.096ZM150.776 61.2327L150.558 60.2068H149.509L149.727 61.2327H150.776ZM151.466 64.4799L151.684 65.5059H152.733L152.515 64.4799H151.466ZM146.766 57.9856L146.984 59.0115H148.033L147.815 57.9856H146.766ZM144.696 48.2441H145.745L145.526 47.2181H144.478L144.696 48.2441ZM131.417 48.2441L131.199 47.2181H130.15L130.368 48.2441H131.417ZM133.487 57.9856H132.439L132.657 59.0115H133.706L133.487 57.9856ZM143.315 41.7497L143.533 42.7757H144.582L144.364 41.7497H143.315ZM141.935 35.2554H142.984L142.766 34.2295H141.717L141.935 35.2554ZM128.656 35.2554L128.438 34.2295H127.389L127.607 35.2554H128.656ZM130.036 41.7497H128.988L129.206 42.7757H130.255L130.036 41.7497ZM148.147 64.4799L147.929 63.4539H144.609L144.827 64.4799L145.045 65.5059H148.365L148.147 64.4799ZM144.827 64.4799L144.609 63.4539H141.289L141.507 64.4799L141.725 65.5059H145.045L144.827 64.4799ZM141.507 64.4799L141.289 63.4539H137.97L138.188 64.4799L138.406 65.5059H141.725L141.507 64.4799ZM138.188 64.4799L137.97 63.4539H134.65L134.868 64.4799L135.086 65.5059H138.406L138.188 64.4799ZM134.868 64.4799L134.65 63.4539H131.33L131.548 64.4799L131.766 65.5059H135.086L134.868 64.4799ZM131.548 64.4799L131.33 63.4539H128.01L128.228 64.4799L128.447 65.5059H131.766L131.548 64.4799ZM128.228 64.4799H129.277L128.587 61.2327H127.538H126.489L127.18 64.4799H128.228ZM127.538 61.2327H128.587L127.897 57.9856H126.848H125.799L126.489 61.2327H127.538ZM126.848 57.9856H127.897L127.207 54.7384H126.158H125.109L125.799 57.9856H126.848ZM126.158 54.7384H127.207L126.517 51.4912H125.468H124.419L125.109 54.7384H126.158ZM125.468 51.4912H126.517L125.826 48.2441H124.777H123.729L124.419 51.4912H125.468ZM124.777 48.2441H125.826L125.136 44.9969H124.087H123.038L123.729 48.2441H124.777ZM124.087 44.9969H125.136L124.446 41.7497H123.397H122.348L123.038 44.9969H124.087ZM123.397 41.7497H124.446L123.756 38.5026H122.707H121.658L122.348 41.7497H123.397ZM122.707 38.5026H123.756L123.065 35.2554H122.017H120.968L121.658 38.5026H122.707ZM122.017 35.2554H123.065L122.375 32.0082H121.326H120.278L120.968 35.2554H122.017ZM121.326 32.0082H122.375L121.685 28.7611H120.636H119.587L120.278 32.0082H121.326ZM120.636 28.7611L120.854 29.787H124.174L123.956 28.7611L123.738 27.7351H120.418L120.636 28.7611ZM123.956 28.7611L124.174 29.787H127.494L127.276 28.7611L127.058 27.7351H123.738L123.956 28.7611ZM127.276 28.7611L127.494 29.787H130.813L130.595 28.7611L130.377 27.7351H127.058L127.276 28.7611ZM130.595 28.7611L130.813 29.787H134.133L133.915 28.7611L133.697 27.7351H130.377L130.595 28.7611ZM133.915 28.7611L134.133 29.787H137.453L137.235 28.7611L137.017 27.7351H133.697L133.915 28.7611ZM137.235 28.7611L137.453 29.787H140.773L140.554 28.7611L140.336 27.7351H137.017L137.235 28.7611ZM140.554 28.7611L140.773 29.787H144.092L143.874 28.7611L143.656 27.7351H140.336L140.554 28.7611ZM143.874 28.7611H142.825L143.515 32.0082H144.564H145.613L144.923 28.7611H143.874ZM144.564 32.0082L144.782 33.0342H148.102L147.884 32.0082L147.666 30.9823H144.346L144.564 32.0082ZM147.884 32.0082H146.835L147.525 35.2554H148.574H149.623L148.933 32.0082H147.884ZM148.574 35.2554H147.525L148.216 38.5026H149.264H150.313L149.623 35.2554H148.574ZM149.264 38.5026H148.216L148.906 41.7497H149.955H151.004L150.313 38.5026H149.264ZM149.955 41.7497H148.906L149.596 44.9969H150.645H151.694L151.004 41.7497H149.955ZM150.645 44.9969L150.427 43.971H147.107L147.325 44.9969L147.543 46.0229H150.863L150.645 44.9969ZM147.325 44.9969H146.276L146.967 48.2441H148.015H149.064L148.374 44.9969H147.325ZM148.015 48.2441L148.233 49.27H151.553L151.335 48.2441L151.117 47.2181H147.797L148.015 48.2441ZM151.335 48.2441H150.286L150.976 51.4912H152.025H153.074L152.384 48.2441H151.335ZM152.025 51.4912H150.976L151.667 54.7384H152.716H153.764L153.074 51.4912H152.025ZM152.716 54.7384H151.667L152.357 57.9856H153.406H154.455L153.764 54.7384H152.716ZM153.406 57.9856H152.357L153.047 61.2327H154.096H155.145L154.455 57.9856H153.406ZM154.096 61.2327L153.878 60.2068H150.558L150.776 61.2327L150.994 62.2587H154.314L154.096 61.2327ZM150.776 61.2327H149.727L150.418 64.4799H151.466H152.515L151.825 61.2327H150.776ZM151.466 64.4799L151.248 63.4539H147.929L148.147 64.4799L148.365 65.5059H151.684L151.466 64.4799ZM143.447 57.9856L143.665 59.0115H146.984L146.766 57.9856L146.548 56.9596H143.229L143.447 57.9856ZM146.766 57.9856H147.815L147.125 54.7384H146.076H145.027L145.717 57.9856H146.766ZM146.076 54.7384H147.125L146.435 51.4912H145.386H144.337L145.027 54.7384H146.076ZM145.386 51.4912H146.435L145.745 48.2441H144.696H143.647L144.337 51.4912H145.386ZM144.696 48.2441L144.478 47.2181H141.158L141.376 48.2441L141.594 49.27H144.914L144.696 48.2441ZM141.376 48.2441L141.158 47.2181H137.838L138.056 48.2441L138.274 49.27H141.594L141.376 48.2441ZM138.056 48.2441L137.838 47.2181H134.518L134.737 48.2441L134.955 49.27H138.274L138.056 48.2441ZM134.737 48.2441L134.518 47.2181H131.199L131.417 48.2441L131.635 49.27H134.955L134.737 48.2441ZM131.417 48.2441H130.368L131.058 51.4912H132.107H133.156L132.466 48.2441H131.417ZM132.107 51.4912H131.058L131.748 54.7384H132.797H133.846L133.156 51.4912H132.107ZM132.797 54.7384H131.748L132.439 57.9856H133.487H134.536L133.846 54.7384H132.797ZM133.487 57.9856L133.706 59.0115H137.025L136.807 57.9856L136.589 56.9596H133.269L133.487 57.9856ZM136.807 57.9856L137.025 59.0115H140.345L140.127 57.9856L139.909 56.9596H136.589L136.807 57.9856ZM140.127 57.9856L140.345 59.0115H143.665L143.447 57.9856L143.229 56.9596H139.909L140.127 57.9856ZM139.996 41.7497L140.214 42.7757H143.533L143.315 41.7497L143.097 40.7238H139.777L139.996 41.7497ZM143.315 41.7497H144.364L143.674 38.5026H142.625H141.576L142.266 41.7497H143.315ZM142.625 38.5026H143.674L142.984 35.2554H141.935H140.886L141.576 38.5026H142.625ZM141.935 35.2554L141.717 34.2295H138.397L138.615 35.2554L138.833 36.2814H142.153L141.935 35.2554ZM138.615 35.2554L138.397 34.2295H135.077L135.295 35.2554L135.514 36.2814H138.833L138.615 35.2554ZM135.295 35.2554L135.077 34.2295H131.758L131.976 35.2554L132.194 36.2814H135.514L135.295 35.2554ZM131.976 35.2554L131.758 34.2295H128.438L128.656 35.2554L128.874 36.2814H132.194L131.976 35.2554ZM128.656 35.2554H127.607L128.297 38.5026H129.346H130.395L129.705 35.2554H128.656ZM129.346 38.5026H128.297L128.988 41.7497H130.036H131.085L130.395 38.5026H129.346ZM130.036 41.7497L130.255 42.7757H133.574L133.356 41.7497L133.138 40.7238H129.818L130.036 41.7497ZM133.356 41.7497L133.574 42.7757H136.894L136.676 41.7497L136.458 40.7238H133.138L133.356 41.7497ZM136.676 41.7497L136.894 42.7757H140.214L139.996 41.7497L139.777 40.7238H136.458L136.676 41.7497ZM165.94 64.4799H164.891L165.11 65.5059H166.158L165.94 64.4799ZM165.25 61.2327H166.299L166.081 60.2068H165.032L165.25 61.2327ZM161.93 61.2327H160.882L161.1 62.2587H162.149L161.93 61.2327ZM155.719 32.0082L155.5 30.9823H154.452L154.67 32.0082H155.719ZM159.038 32.0082L159.256 33.0342H160.305L160.087 32.0082H159.038ZM158.348 28.7611L158.13 27.7351H157.081L157.299 28.7611H158.348ZM178.266 28.7611H179.315L179.097 27.7351H178.048L178.266 28.7611ZM178.957 32.0082H177.908L178.126 33.0342H179.175L178.957 32.0082ZM182.276 32.0082H183.325L183.107 30.9823H182.058L182.276 32.0082ZM188.488 61.2327L188.706 62.2587H189.755L189.537 61.2327H188.488ZM185.168 61.2327L184.95 60.2068H183.901L184.12 61.2327H185.168ZM185.859 64.4799L186.077 65.5059H187.126L186.907 64.4799H185.859ZM181.158 57.9856L181.377 59.0115H182.425L182.207 57.9856H181.158ZM176.327 35.2554H177.376L177.158 34.2295H176.109L176.327 35.2554ZM163.048 35.2554L162.83 34.2295H161.781L161.999 35.2554H163.048ZM167.88 57.9856H166.831L167.049 59.0115H168.098L167.88 57.9856ZM182.539 64.4799L182.321 63.4539H179.001L179.219 64.4799L179.437 65.5059H182.757L182.539 64.4799ZM179.219 64.4799L179.001 63.4539H175.681L175.899 64.4799L176.118 65.5059H179.437L179.219 64.4799ZM175.899 64.4799L175.681 63.4539H172.362L172.58 64.4799L172.798 65.5059H176.118L175.899 64.4799ZM172.58 64.4799L172.362 63.4539H169.042L169.26 64.4799L169.478 65.5059H172.798L172.58 64.4799ZM169.26 64.4799L169.042 63.4539H165.722L165.94 64.4799L166.158 65.5059H169.478L169.26 64.4799ZM165.94 64.4799H166.989L166.299 61.2327H165.25H164.201L164.891 64.4799H165.94ZM165.25 61.2327L165.032 60.2068H161.712L161.93 61.2327L162.149 62.2587H165.468L165.25 61.2327ZM161.93 61.2327H162.979L162.289 57.9856H161.24H160.191L160.882 61.2327H161.93ZM161.24 57.9856H162.289L161.599 54.7384H160.55H159.501L160.191 57.9856H161.24ZM160.55 54.7384H161.599L160.909 51.4912H159.86H158.811L159.501 54.7384H160.55ZM159.86 51.4912H160.909L160.218 48.2441H159.17H158.121L158.811 51.4912H159.86ZM159.17 48.2441H160.218L159.528 44.9969H158.479H157.431L158.121 48.2441H159.17ZM158.479 44.9969H159.528L158.838 41.7497H157.789H156.74L157.431 44.9969H158.479ZM157.789 41.7497H158.838L158.148 38.5026H157.099H156.05L156.74 41.7497H157.789ZM157.099 38.5026H158.148L157.458 35.2554H156.409H155.36L156.05 38.5026H157.099ZM156.409 35.2554H157.458L156.767 32.0082H155.719H154.67L155.36 35.2554H156.409ZM155.719 32.0082L155.937 33.0342H159.256L159.038 32.0082L158.82 30.9823H155.5L155.719 32.0082ZM159.038 32.0082H160.087L159.397 28.7611H158.348H157.299L157.989 32.0082H159.038ZM158.348 28.7611L158.566 29.787H161.886L161.668 28.7611L161.45 27.7351H158.13L158.348 28.7611ZM161.668 28.7611L161.886 29.787H165.206L164.987 28.7611L164.769 27.7351H161.45L161.668 28.7611ZM164.987 28.7611L165.206 29.787H168.525L168.307 28.7611L168.089 27.7351H164.769L164.987 28.7611ZM168.307 28.7611L168.525 29.787H171.845L171.627 28.7611L171.409 27.7351H168.089L168.307 28.7611ZM171.627 28.7611L171.845 29.787H175.165L174.947 28.7611L174.729 27.7351H171.409L171.627 28.7611ZM174.947 28.7611L175.165 29.787H178.484L178.266 28.7611L178.048 27.7351H174.729L174.947 28.7611ZM178.266 28.7611H177.217L177.908 32.0082H178.957H180.005L179.315 28.7611H178.266ZM178.957 32.0082L179.175 33.0342H182.494L182.276 32.0082L182.058 30.9823H178.738L178.957 32.0082ZM182.276 32.0082H181.227L181.918 35.2554H182.966H184.015L183.325 32.0082H182.276ZM182.966 35.2554H181.918L182.608 38.5026H183.657H184.706L184.015 35.2554H182.966ZM183.657 38.5026H182.608L183.298 41.7497H184.347H185.396L184.706 38.5026H183.657ZM184.347 41.7497H183.298L183.988 44.9969H185.037H186.086L185.396 41.7497H184.347ZM185.037 44.9969H183.988L184.678 48.2441H185.727H186.776L186.086 44.9969H185.037ZM185.727 48.2441H184.678L185.369 51.4912H186.417H187.466L186.776 48.2441H185.727ZM186.417 51.4912H185.369L186.059 54.7384H187.108H188.157L187.466 51.4912H186.417ZM187.108 54.7384H186.059L186.749 57.9856H187.798H188.847L188.157 54.7384H187.108ZM187.798 57.9856H186.749L187.439 61.2327H188.488H189.537L188.847 57.9856H187.798ZM188.488 61.2327L188.27 60.2068H184.95L185.168 61.2327L185.386 62.2587H188.706L188.488 61.2327ZM185.168 61.2327H184.12L184.81 64.4799H185.859H186.907L186.217 61.2327H185.168ZM185.859 64.4799L185.641 63.4539H182.321L182.539 64.4799L182.757 65.5059H186.077L185.859 64.4799ZM177.839 57.9856L178.057 59.0115H181.377L181.158 57.9856L180.94 56.9596H177.621L177.839 57.9856ZM181.158 57.9856H182.207L181.517 54.7384H180.468H179.419L180.11 57.9856H181.158ZM180.468 54.7384H181.517L180.827 51.4912H179.778H178.729L179.419 54.7384H180.468ZM179.778 51.4912H180.827L180.137 48.2441H179.088H178.039L178.729 51.4912H179.778ZM179.088 48.2441H180.137L179.447 44.9969H178.398H177.349L178.039 48.2441H179.088ZM178.398 44.9969H179.447L178.756 41.7497H177.707H176.659L177.349 44.9969H178.398ZM177.707 41.7497H178.756L178.066 38.5026H177.017H175.968L176.659 41.7497H177.707ZM177.017 38.5026H178.066L177.376 35.2554H176.327H175.278L175.968 38.5026H177.017ZM176.327 35.2554L176.109 34.2295H172.789L173.007 35.2554L173.225 36.2814H176.545L176.327 35.2554ZM173.007 35.2554L172.789 34.2295H169.47L169.688 35.2554L169.906 36.2814H173.225L173.007 35.2554ZM169.688 35.2554L169.47 34.2295H166.15L166.368 35.2554L166.586 36.2814H169.906L169.688 35.2554ZM166.368 35.2554L166.15 34.2295H162.83L163.048 35.2554L163.266 36.2814H166.586L166.368 35.2554ZM163.048 35.2554H161.999L162.69 38.5026H163.738H164.787L164.097 35.2554H163.048ZM163.738 38.5026H162.69L163.38 41.7497H164.429H165.477L164.787 38.5026H163.738ZM164.429 41.7497H163.38L164.07 44.9969H165.119H166.168L165.477 41.7497H164.429ZM165.119 44.9969H164.07L164.76 48.2441H165.809H166.858L166.168 44.9969H165.119ZM165.809 48.2441H164.76L165.45 51.4912H166.499H167.548L166.858 48.2441H165.809ZM166.499 51.4912H165.45L166.141 54.7384H167.189H168.238L167.548 51.4912H166.499ZM167.189 54.7384H166.141L166.831 57.9856H167.88H168.929L168.238 54.7384H167.189ZM167.88 57.9856L168.098 59.0115H171.417L171.199 57.9856L170.981 56.9596H167.662L167.88 57.9856ZM171.199 57.9856L171.417 59.0115H174.737L174.519 57.9856L174.301 56.9596H170.981L171.199 57.9856ZM174.519 57.9856L174.737 59.0115H178.057L177.839 57.9856L177.621 56.9596H174.301L174.519 57.9856ZM203.652 64.4799H202.603L202.821 65.5059H203.87L203.652 64.4799ZM197.44 35.2554H198.489L198.271 34.2295H197.222L197.44 35.2554ZM187.481 35.2554H186.432L186.65 36.2814H187.699L187.481 35.2554ZM186.101 28.7611L185.883 27.7351H184.834L185.052 28.7611H186.101ZM212.659 28.7611H213.707L213.489 27.7351H212.44L212.659 28.7611ZM214.039 35.2554L214.257 36.2814H215.306L215.088 35.2554H214.039ZM204.08 35.2554L203.862 34.2295H202.813L203.031 35.2554H204.08ZM210.292 64.4799L210.51 65.5059H211.559L211.341 64.4799H210.292ZM206.972 64.4799L206.754 63.4539H203.434L203.652 64.4799L203.87 65.5059H207.19L206.972 64.4799ZM203.652 64.4799H204.701L204.011 61.2327H202.962H201.913L202.603 64.4799H203.652ZM202.962 61.2327H204.011L203.321 57.9856H202.272H201.223L201.913 61.2327H202.962ZM202.272 57.9856H203.321L202.63 54.7384H201.582H200.533L201.223 57.9856H202.272ZM201.582 54.7384H202.63L201.94 51.4912H200.891H199.843L200.533 54.7384H201.582ZM200.891 51.4912H201.94L201.25 48.2441H200.201H199.152L199.843 51.4912H200.891ZM200.201 48.2441H201.25L200.56 44.9969H199.511H198.462L199.152 48.2441H200.201ZM199.511 44.9969H200.56L199.87 41.7497H198.821H197.772L198.462 44.9969H199.511ZM198.821 41.7497H199.87L199.179 38.5026H198.131H197.082L197.772 41.7497H198.821ZM198.131 38.5026H199.179L198.489 35.2554H197.44H196.392L197.082 38.5026H198.131ZM197.44 35.2554L197.222 34.2295H193.903L194.121 35.2554L194.339 36.2814H197.658L197.44 35.2554ZM194.121 35.2554L193.903 34.2295H190.583L190.801 35.2554L191.019 36.2814H194.339L194.121 35.2554ZM190.801 35.2554L190.583 34.2295H187.263L187.481 35.2554L187.699 36.2814H191.019L190.801 35.2554ZM187.481 35.2554H188.53L187.84 32.0082H186.791H185.742L186.432 35.2554H187.481ZM186.791 32.0082H187.84L187.15 28.7611H186.101H185.052L185.742 32.0082H186.791ZM186.101 28.7611L186.319 29.787H189.639L189.421 28.7611L189.202 27.7351H185.883L186.101 28.7611ZM189.421 28.7611L189.639 29.787H192.958L192.74 28.7611L192.522 27.7351H189.202L189.421 28.7611ZM192.74 28.7611L192.958 29.787H196.278L196.06 28.7611L195.842 27.7351H192.522L192.74 28.7611ZM196.06 28.7611L196.278 29.787H199.598L199.38 28.7611L199.162 27.7351H195.842L196.06 28.7611ZM199.38 28.7611L199.598 29.787H202.917L202.699 28.7611L202.481 27.7351H199.162L199.38 28.7611ZM202.699 28.7611L202.917 29.787H206.237L206.019 28.7611L205.801 27.7351H202.481L202.699 28.7611ZM206.019 28.7611L206.237 29.787H209.557L209.339 28.7611L209.121 27.7351H205.801L206.019 28.7611ZM209.339 28.7611L209.557 29.787H212.877L212.659 28.7611L212.44 27.7351H209.121L209.339 28.7611ZM212.659 28.7611H211.61L212.3 32.0082H213.349H214.398L213.707 28.7611H212.659ZM213.349 32.0082H212.3L212.99 35.2554H214.039H215.088L214.398 32.0082H213.349ZM214.039 35.2554L213.821 34.2295H210.501L210.719 35.2554L210.937 36.2814H214.257L214.039 35.2554ZM210.719 35.2554L210.501 34.2295H207.181L207.4 35.2554L207.618 36.2814H210.937L210.719 35.2554ZM207.4 35.2554L207.181 34.2295H203.862L204.08 35.2554L204.298 36.2814H207.618L207.4 35.2554ZM204.08 35.2554H203.031L203.721 38.5026H204.77H205.819L205.129 35.2554H204.08ZM204.77 38.5026H203.721L204.411 41.7497H205.46H206.509L205.819 38.5026H204.77ZM205.46 41.7497H204.411L205.102 44.9969H206.15H207.199L206.509 41.7497H205.46ZM206.15 44.9969H205.102L205.792 48.2441H206.841H207.89L207.199 44.9969H206.15ZM206.841 48.2441H205.792L206.482 51.4912H207.531H208.58L207.89 48.2441H206.841ZM207.531 51.4912H206.482L207.172 54.7384H208.221H209.27L208.58 51.4912H207.531ZM208.221 54.7384H207.172L207.862 57.9856H208.911H209.96L209.27 54.7384H208.221ZM208.911 57.9856H207.862L208.553 61.2327H209.601H210.65L209.96 57.9856H208.911ZM209.601 61.2327H208.553L209.243 64.4799H210.292H211.341L210.65 61.2327H209.601ZM210.292 64.4799L210.074 63.4539H206.754L206.972 64.4799L207.19 65.5059H210.51L210.292 64.4799ZM224.766 64.4799H223.717L223.935 65.5059H224.984L224.766 64.4799ZM223.385 57.9856L223.167 56.9596H222.118L222.336 57.9856H223.385ZM226.705 57.9856L226.923 59.0115H227.972L227.754 57.9856H226.705ZM221.873 35.2554H222.922L222.704 34.2295H221.655L221.873 35.2554ZM218.554 35.2554H217.505L217.723 36.2814H218.772L218.554 35.2554ZM217.173 28.7611L216.955 27.7351H215.906L216.124 28.7611H217.173ZM230.452 28.7611H231.501L231.283 27.7351H230.234L230.452 28.7611ZM231.833 35.2554L232.051 36.2814H233.1L232.881 35.2554H231.833ZM228.513 35.2554L228.295 34.2295H227.246L227.464 35.2554H228.513ZM233.344 57.9856H232.295L232.514 59.0115H233.562L233.344 57.9856ZM236.664 57.9856H237.713L237.495 56.9596H236.446L236.664 57.9856ZM238.044 64.4799L238.262 65.5059H239.311L239.093 64.4799H238.044ZM234.725 64.4799L234.507 63.4539H231.187L231.405 64.4799L231.623 65.5059H234.943L234.725 64.4799ZM231.405 64.4799L231.187 63.4539H227.867L228.085 64.4799L228.303 65.5059H231.623L231.405 64.4799ZM228.085 64.4799L227.867 63.4539H224.548L224.766 64.4799L224.984 65.5059H228.303L228.085 64.4799ZM224.766 64.4799H225.814L225.124 61.2327H224.075H223.027L223.717 64.4799H224.766ZM224.075 61.2327H225.124L224.434 57.9856H223.385H222.336L223.027 61.2327H224.075ZM223.385 57.9856L223.603 59.0115H226.923L226.705 57.9856L226.487 56.9596H223.167L223.385 57.9856ZM226.705 57.9856H227.754L227.064 54.7384H226.015H224.966L225.656 57.9856H226.705ZM226.015 54.7384H227.064L226.373 51.4912H225.324H224.276L224.966 54.7384H226.015ZM225.324 51.4912H226.373L225.683 48.2441H224.634H223.585L224.276 51.4912H225.324ZM224.634 48.2441H225.683L224.993 44.9969H223.944H222.895L223.585 48.2441H224.634ZM223.944 44.9969H224.993L224.303 41.7497H223.254H222.205L222.895 44.9969H223.944ZM223.254 41.7497H224.303L223.613 38.5026H222.564H221.515L222.205 41.7497H223.254ZM222.564 38.5026H223.613L222.922 35.2554H221.873H220.825L221.515 38.5026H222.564ZM221.873 35.2554L221.655 34.2295H218.336L218.554 35.2554L218.772 36.2814H222.092L221.873 35.2554ZM218.554 35.2554H219.603L218.912 32.0082H217.864H216.815L217.505 35.2554H218.554ZM217.864 32.0082H218.912L218.222 28.7611H217.173H216.124L216.815 32.0082H217.864ZM217.173 28.7611L217.391 29.787H220.711L220.493 28.7611L220.275 27.7351H216.955L217.173 28.7611ZM220.493 28.7611L220.711 29.787H224.031L223.813 28.7611L223.595 27.7351H220.275L220.493 28.7611ZM223.813 28.7611L224.031 29.787H227.351L227.132 28.7611L226.914 27.7351H223.595L223.813 28.7611ZM227.132 28.7611L227.351 29.787H230.67L230.452 28.7611L230.234 27.7351H226.914L227.132 28.7611ZM230.452 28.7611H229.403L230.093 32.0082H231.142H232.191L231.501 28.7611H230.452ZM231.142 32.0082H230.093L230.784 35.2554H231.833H232.881L232.191 32.0082H231.142ZM231.833 35.2554L231.614 34.2295H228.295L228.513 35.2554L228.731 36.2814H232.051L231.833 35.2554ZM228.513 35.2554H227.464L228.154 38.5026H229.203H230.252L229.562 35.2554H228.513ZM229.203 38.5026H228.154L228.844 41.7497H229.893H230.942L230.252 38.5026H229.203ZM229.893 41.7497H228.844L229.535 44.9969H230.583H231.632L230.942 41.7497H229.893ZM230.583 44.9969H229.535L230.225 48.2441H231.274H232.323L231.632 44.9969H230.583ZM231.274 48.2441H230.225L230.915 51.4912H231.964H233.013L232.323 48.2441H231.274ZM231.964 51.4912H230.915L231.605 54.7384H232.654H233.703L233.013 51.4912H231.964ZM232.654 54.7384H231.605L232.295 57.9856H233.344H234.393L233.703 54.7384H232.654ZM233.344 57.9856L233.562 59.0115H236.882L236.664 57.9856L236.446 56.9596H233.126L233.344 57.9856ZM236.664 57.9856H235.615L236.305 61.2327H237.354H238.403L237.713 57.9856H236.664ZM237.354 61.2327H236.305L236.996 64.4799H238.044H239.093L238.403 61.2327H237.354ZM238.044 64.4799L237.826 63.4539H234.507L234.725 64.4799L234.943 65.5059H238.262L238.044 64.4799ZM249.199 64.4799H248.15L248.368 65.5059H249.417L249.199 64.4799ZM248.508 61.2327H249.557L249.339 60.2068H248.29L248.508 61.2327ZM245.189 61.2327H244.14L244.358 62.2587H245.407L245.189 61.2327ZM238.977 32.0082L238.759 30.9823H237.71L237.928 32.0082H238.977ZM242.297 32.0082L242.515 33.0342H243.564L243.345 32.0082H242.297ZM241.606 28.7611L241.388 27.7351H240.339L240.558 28.7611H241.606ZM258.205 28.7611H259.254L259.036 27.7351H257.987L258.205 28.7611ZM258.895 32.0082H257.846L258.064 33.0342H259.113L258.895 32.0082ZM262.215 32.0082H263.264L263.046 30.9823H261.997L262.215 32.0082ZM263.595 38.5026L263.813 39.5285H264.862L264.644 38.5026H263.595ZM256.956 38.5026H255.907L256.125 39.5285H257.174L256.956 38.5026ZM256.266 35.2554H257.315L257.096 34.2295H256.048L256.266 35.2554ZM246.307 35.2554L246.088 34.2295H245.04L245.258 35.2554H246.307ZM251.138 57.9856H250.089L250.307 59.0115H251.356L251.138 57.9856ZM261.097 57.9856L261.315 59.0115H262.364L262.146 57.9856H261.097ZM260.407 54.7384L260.189 53.7125H259.14L259.358 54.7384H260.407ZM267.046 54.7384H268.095L267.877 53.7125H266.828L267.046 54.7384ZM268.427 61.2327L268.645 62.2587H269.694L269.476 61.2327H268.427ZM265.107 61.2327L264.889 60.2068H263.84L264.058 61.2327H265.107ZM265.797 64.4799L266.015 65.5059H267.064L266.846 64.4799H265.797ZM262.477 64.4799L262.259 63.4539H258.94L259.158 64.4799L259.376 65.5059H262.696L262.477 64.4799ZM259.158 64.4799L258.94 63.4539H255.62L255.838 64.4799L256.056 65.5059H259.376L259.158 64.4799ZM255.838 64.4799L255.62 63.4539H252.3L252.518 64.4799L252.736 65.5059H256.056L255.838 64.4799ZM252.518 64.4799L252.3 63.4539H248.981L249.199 64.4799L249.417 65.5059H252.736L252.518 64.4799ZM249.199 64.4799H250.248L249.557 61.2327H248.508H247.46L248.15 64.4799H249.199ZM248.508 61.2327L248.29 60.2068H244.971L245.189 61.2327L245.407 62.2587H248.727L248.508 61.2327ZM245.189 61.2327H246.238L245.547 57.9856H244.499H243.45L244.14 61.2327H245.189ZM244.499 57.9856H245.547L244.857 54.7384H243.808H242.759L243.45 57.9856H244.499ZM243.808 54.7384H244.857L244.167 51.4912H243.118H242.069L242.759 54.7384H243.808ZM243.118 51.4912H244.167L243.477 48.2441H242.428H241.379L242.069 51.4912H243.118ZM242.428 48.2441H243.477L242.787 44.9969H241.738H240.689L241.379 48.2441H242.428ZM241.738 44.9969H242.787L242.096 41.7497H241.047H239.999L240.689 44.9969H241.738ZM241.047 41.7497H242.096L241.406 38.5026H240.357H239.308L239.999 41.7497H241.047ZM240.357 38.5026H241.406L240.716 35.2554H239.667H238.618L239.308 38.5026H240.357ZM239.667 35.2554H240.716L240.026 32.0082H238.977H237.928L238.618 35.2554H239.667ZM238.977 32.0082L239.195 33.0342H242.515L242.297 32.0082L242.079 30.9823H238.759L238.977 32.0082ZM242.297 32.0082H243.345L242.655 28.7611H241.606H240.558L241.248 32.0082H242.297ZM241.606 28.7611L241.824 29.787H245.144L244.926 28.7611L244.708 27.7351H241.388L241.606 28.7611ZM244.926 28.7611L245.144 29.787H248.464L248.246 28.7611L248.028 27.7351H244.708L244.926 28.7611ZM248.246 28.7611L248.464 29.787H251.784L251.566 28.7611L251.347 27.7351H248.028L248.246 28.7611ZM251.566 28.7611L251.784 29.787H255.103L254.885 28.7611L254.667 27.7351H251.347L251.566 28.7611ZM254.885 28.7611L255.103 29.787H258.423L258.205 28.7611L257.987 27.7351H254.667L254.885 28.7611ZM258.205 28.7611H257.156L257.846 32.0082H258.895H259.944L259.254 28.7611H258.205ZM258.895 32.0082L259.113 33.0342H262.433L262.215 32.0082L261.997 30.9823H258.677L258.895 32.0082ZM262.215 32.0082H261.166L261.856 35.2554H262.905H263.954L263.264 32.0082H262.215ZM262.905 35.2554H261.856L262.546 38.5026H263.595H264.644L263.954 35.2554H262.905ZM263.595 38.5026L263.377 37.4766H260.057L260.276 38.5026L260.494 39.5285H263.813L263.595 38.5026ZM260.276 38.5026L260.057 37.4766H256.738L256.956 38.5026L257.174 39.5285H260.494L260.276 38.5026ZM256.956 38.5026H258.005L257.315 35.2554H256.266H255.217L255.907 38.5026H256.956ZM256.266 35.2554L256.048 34.2295H252.728L252.946 35.2554L253.164 36.2814H256.484L256.266 35.2554ZM252.946 35.2554L252.728 34.2295H249.408L249.626 35.2554L249.844 36.2814H253.164L252.946 35.2554ZM249.626 35.2554L249.408 34.2295H246.088L246.307 35.2554L246.525 36.2814H249.844L249.626 35.2554ZM246.307 35.2554H245.258L245.948 38.5026H246.997H248.046L247.355 35.2554H246.307ZM246.997 38.5026H245.948L246.638 41.7497H247.687H248.736L248.046 38.5026H246.997ZM247.687 41.7497H246.638L247.328 44.9969H248.377H249.426L248.736 41.7497H247.687ZM248.377 44.9969H247.328L248.018 48.2441H249.067H250.116L249.426 44.9969H248.377ZM249.067 48.2441H248.018L248.709 51.4912H249.758H250.806L250.116 48.2441H249.067ZM249.758 51.4912H248.709L249.399 54.7384H250.448H251.497L250.806 51.4912H249.758ZM250.448 54.7384H249.399L250.089 57.9856H251.138H252.187L251.497 54.7384H250.448ZM251.138 57.9856L251.356 59.0115H254.676L254.458 57.9856L254.24 56.9596H250.92L251.138 57.9856ZM254.458 57.9856L254.676 59.0115H257.995L257.777 57.9856L257.559 56.9596H254.24L254.458 57.9856ZM257.777 57.9856L257.995 59.0115H261.315L261.097 57.9856L260.879 56.9596H257.559L257.777 57.9856ZM261.097 57.9856H262.146L261.456 54.7384H260.407H259.358L260.048 57.9856H261.097ZM260.407 54.7384L260.625 55.7644H263.945L263.727 54.7384L263.509 53.7125H260.189L260.407 54.7384ZM263.727 54.7384L263.945 55.7644H267.264L267.046 54.7384L266.828 53.7125H263.509L263.727 54.7384ZM267.046 54.7384H265.997L266.688 57.9856H267.736H268.785L268.095 54.7384H267.046ZM267.736 57.9856H266.688L267.378 61.2327H268.427H269.476L268.785 57.9856H267.736ZM268.427 61.2327L268.209 60.2068H264.889L265.107 61.2327L265.325 62.2587H268.645L268.427 61.2327ZM265.107 61.2327H264.058L264.748 64.4799H265.797H266.846L266.156 61.2327H265.107ZM265.797 64.4799L265.579 63.4539H262.259L262.477 64.4799L262.696 65.5059H266.015L265.797 64.4799Z" fill="#F1F2FF" mask="url(#path-75-outside-1_1041_544)"/>
</g>
<g clip-path="url(#clip1_1041_544)">
<g filter="url(#filter2_d_1041_544)">
<path d="M39.9476 91.5274L34.0806 89.5717C30.896 88.5102 30.896 84.0056 34.0806 82.9441L52.4424 76.8235C55.1731 75.9132 57.7711 78.5112 56.8608 81.2419L50.7402 99.6037C49.6787 102.788 45.1741 102.788 44.1126 99.6037L42.1569 93.7366C41.8092 92.6936 40.9907 91.8751 39.9476 91.5274Z" fill="url(#paint12_linear_1041_544)"/>
</g>
</g>
</g>
<path d="M63.7337 276.545C59.5865 274.926 56.6918 273.227 56.4066 273.057L57.3068 271.542C57.4734 271.641 74.038 281.346 85.2735 276.34C90.2367 274.129 93.4906 269.312 94.9423 262.023L96.6722 262.368C95.102 270.252 91.5063 275.495 85.9882 277.952C78.7797 281.162 69.8823 278.943 63.7337 276.545Z" fill="#BF8A00"/>
<path d="M171.005 393.488L153.396 406.213C151.212 404.169 149.18 401.693 147.278 398.845C135.497 381.234 128.752 349.488 122.6 318.628C115.453 282.782 91.6936 251.734 91.6936 251.734C95.8854 249.708 100.578 254.283 104.657 254.915C107.649 255.379 118.819 263.443 120.791 265.745C128.658 274.912 131.185 282.419 140.383 297.437C150.783 314.428 150.512 327.781 150.749 341.602C150.922 351.731 161.732 374.903 167.488 386.544C169.583 390.78 171.005 393.488 171.005 393.488Z" fill="#341A1B"/>
<path d="M171.005 393.488L153.396 406.213C151.212 404.169 149.18 401.693 147.278 398.845C135.497 381.234 128.752 349.488 122.6 318.628C115.453 282.782 91.6936 251.734 91.6936 251.734C95.8854 249.708 100.578 254.283 104.657 254.915C107.649 255.379 118.819 263.443 120.791 265.745C128.658 274.912 131.185 282.419 140.383 297.437C150.783 314.428 150.512 327.781 150.749 341.602C150.922 351.731 161.732 374.903 167.488 386.544C169.583 390.78 171.005 393.488 171.005 393.488Z" fill="url(#paint13_linear_1041_544)"/>
<path d="M89.8276 251.182C89.8276 251.182 89.9771 251.077 90.2589 250.914C95.6378 247.817 102.517 250.583 104.338 256.516C106.279 262.845 108.816 272.578 108.493 279.321C108.493 279.321 96.6033 263.241 89.2109 259.126L89.8276 251.182Z" fill="#030172"/>
<path d="M171.005 393.488L153.396 406.213C151.212 404.169 149.18 401.693 147.278 398.845C151.451 396.538 160.781 391.26 167.488 386.544C169.582 390.781 171.005 393.488 171.005 393.488Z" fill="#030172"/>
<path d="M91.5233 246.354L88.608 265.39C88.608 265.39 74.4691 280.014 48.2925 254.121C55.2382 248.873 57.8221 236.808 56.9528 229.022C56.9528 229.022 59.0143 230.242 62.1891 233.078C62.811 233.633 63.603 234.062 64.3829 234.588C71.2874 239.218 81.8581 245.229 91.5233 246.354Z" fill="#EBB088"/>
<path d="M91.5233 246.354L88.608 265.39C88.608 265.39 74.4691 280.014 48.2925 254.121C55.2382 248.873 57.8221 236.808 56.9528 229.022C56.9528 229.022 59.0143 230.242 62.1891 233.078C62.811 233.633 63.603 234.062 64.3829 234.588C71.2874 239.218 81.8581 245.229 91.5233 246.354Z" fill="url(#paint14_linear_1041_544)"/>
<path d="M90.8272 251.339L88.5223 265.168C75.8453 262.287 61.9649 254.807 55.6771 243.271C56.3574 243.752 57.091 244.256 57.8709 244.781C64.7754 249.41 81.162 250.213 90.8272 251.339Z" fill="url(#paint15_linear_1041_544)"/>
<path d="M65.6249 221.785C65.4754 222.005 61.3918 227.97 56.9783 229.092C56.9749 229.092 56.9732 229.095 56.9698 229.094C56.9578 229.076 56.9526 229.068 56.9526 229.068C56.9131 227.517 56.9062 225.981 56.9251 224.471C57.0832 224.476 61.299 224.563 65.6249 221.785Z" fill="#341A1B"/>
<path d="M53.9256 247.181C53.9256 247.181 46.7376 244.853 39.6974 254.898C39.6974 254.898 49.3231 274.823 74.0051 281.192L73.2114 269.826C73.2114 269.826 59.3526 256.929 53.9256 247.181Z" fill="#023161"/>
<path d="M241.35 237.277L274.12 227.871L277.999 232.018L245.375 241.448L241.35 237.277Z" fill="#324098"/>
<path d="M192.603 251.009L171.948 331.871C171.948 331.871 206.725 323.91 226.615 316.752L245.377 241.448L192.603 251.009Z" fill="#010834"/>
<path d="M205.095 266.109L203.37 273.641L228.608 269.937L231.352 262.024L205.095 266.109Z" fill="#010834"/>
<path d="M245.376 241.448L280.905 231.198L258.075 307.101L226.614 316.751L245.376 241.448Z" fill="#010834"/>
<path d="M65.1352 371.654C74.9293 374.899 85.1048 376.207 95.0896 374.891C98.5753 374.432 101.998 373.681 105.344 372.692C140.598 362.274 167.643 325.154 173.271 316.571C179.217 307.504 174.681 292.1 169.082 287.96C158.96 280.472 130.09 310.56 102.52 321.754C83.0071 329.672 63.2196 305.745 54.1247 285.357C37.8195 248.81 8.87872 271.593 8.87872 271.593C-17.7205 299.977 19.671 356.619 65.1352 371.654Z" fill="#341A1B"/>
<path d="M65.1352 371.654C74.9293 374.899 85.1048 376.207 95.0896 374.891C98.5753 374.432 101.998 373.681 105.344 372.692C140.598 362.274 167.643 325.154 173.271 316.571C179.217 307.504 174.681 292.1 169.082 287.96C158.96 280.472 130.09 310.56 102.52 321.754C83.0071 329.672 63.2196 305.745 54.1247 285.357C37.8195 248.81 8.87872 271.593 8.87872 271.593C-17.7205 299.977 19.671 356.619 65.1352 371.654Z" fill="url(#paint16_linear_1041_544)"/>
<path d="M200.035 302.891C200.035 302.891 217.407 300.814 217.979 304.942C218.575 309.314 202.234 310.482 202.234 310.482C202.234 310.482 210.172 312.249 210.081 314.276C209.85 319.397 188.16 320.23 182.714 320.105C177.27 319.985 167.931 322.44 160.939 321.079C156.198 320.156 141.799 306.799 144.155 297.888C144.895 295.074 151.825 290.867 155.72 287.768C159.68 284.617 166.011 281.109 170.293 279.655C173.044 278.728 176.798 274.862 182.123 273.642L178.765 285.471C178.144 285.995 181.206 288.137 181.206 288.137C181.206 288.137 212.531 278.772 215.474 282.182C219.41 286.745 205.628 290.381 199.42 291.611C199.42 291.611 217.615 290.956 219.425 293.344C223.062 298.127 200.035 302.891 200.035 302.891Z" fill="#FFA283"/>
<path d="M271.683 262.199L273.631 255.418C273.631 255.418 277.254 262.111 274.591 269.451C271.928 276.791 269.949 286.214 268.838 290.698C267.725 295.182 267.261 304.87 264.318 307.095C261.375 309.318 256.712 308.656 251.129 306.497C245.546 304.337 245.063 301.195 248.468 300.384C251.873 299.573 261.117 297.625 261.117 297.625C261.117 297.625 258.439 296.38 251.117 295.641C243.793 294.902 243.972 292.009 248.863 289.537C253.754 287.063 264.74 287.097 264.74 287.097C264.74 287.097 255.951 285.099 250.772 283.962C245.59 282.825 248.557 276.888 257.132 277.415C265.704 277.942 267.316 277.504 267.316 277.504C267.316 277.504 264.107 274.077 257.748 272.971C251.39 271.864 247.784 268.896 251.024 266.236C254.263 263.577 270.166 267.403 270.166 267.403L271.683 262.199Z" fill="#FFA283"/>
<path d="M65.135 371.655C74.5684 375.62 84.3315 377.752 95.0894 374.889C98.4876 373.986 101.997 373.68 105.344 372.69C101.607 367.727 94.6256 361.328 83.3884 361.27C73.2644 361.22 67.9026 366.712 65.135 371.655Z" fill="#023161"/>
<path d="M77.976 317.083C80.7972 319.059 83.8101 320.744 87.0102 322.003C103.743 328.591 129.295 308.545 130.374 307.69C130.85 307.312 130.929 306.619 130.551 306.143C130.177 305.668 129.483 305.587 129.005 305.964C128.75 306.167 103.372 326.079 87.8165 319.953C65.3023 311.089 51.7451 278.958 51.6103 278.634C51.3782 278.074 50.733 277.806 50.1724 278.04C49.612 278.272 49.3444 278.918 49.5782 279.478C50.0611 280.651 60.1806 304.624 77.976 317.083Z" fill="#023161"/>
<path d="M54.6385 368.255C65.5253 374.264 75.4139 377.465 84.1618 377.796C99.3571 378.372 114.869 371.168 125.206 365.023C136.357 358.393 144.067 351.527 144.144 351.458C144.598 351.053 144.636 350.357 144.23 349.903C143.825 349.451 143.129 349.414 142.676 349.817C142.375 350.085 112.357 376.659 84.246 375.595C56.1126 374.53 22.4302 341.528 22.0918 341.195C21.6623 340.767 20.963 340.771 20.5353 341.203C20.1075 341.635 20.1109 342.332 20.5439 342.758C20.6298 342.844 29.2453 351.327 41.29 359.825C45.8873 363.071 50.3402 365.882 54.6385 368.255Z" fill="#023161"/>
<path d="M61.2758 175.773C82.137 168.953 102.217 158.905 112.769 205.394C118.495 230.621 111.68 247.874 90.8193 254.694C71.3859 261.046 48.2248 254.327 39.0199 234.639C38.549 234.978 38.0351 235.244 37.4793 235.426C32.8435 236.942 27.0889 232.063 24.6263 224.53C22.1638 216.997 23.9257 209.662 28.5615 208.147C30.6514 207.463 32.9667 208.082 35.1072 209.655C36.9203 194.027 46.6008 180.57 61.2758 175.773Z" fill="#FCA68C"/>
<path d="M61.2758 175.773C82.137 168.953 102.217 158.905 112.769 205.394C118.495 230.621 111.68 247.874 90.8193 254.694C71.3859 261.046 48.2248 254.327 39.0199 234.639C38.549 234.978 38.0351 235.244 37.4793 235.426C32.8435 236.942 27.0889 232.063 24.6263 224.53C22.1638 216.997 23.9257 209.662 28.5615 208.147C30.6514 207.463 32.9667 208.082 35.1072 209.655C36.9203 194.027 46.6008 180.57 61.2758 175.773Z" fill="url(#paint17_linear_1041_544)"/>
<path d="M46.0501 219.05C40.8414 220.753 35.3923 208.705 27.4121 208.383C31.073 203.086 38.0342 199.388 43.728 195.541C39.381 208.493 43.793 212.146 46.0501 219.05Z" fill="#0F1641"/>
<path d="M102.23 165.87C66.5498 158.565 51.8515 165.421 21.2172 190.417C24.4931 167.281 33.062 154.414 56.1452 146.868C80.1498 140.957 91.2608 147.854 102.23 165.87Z" fill="url(#paint18_linear_1041_544)"/>
<path d="M17.5625 196.001C38.4871 159.352 98.0841 154.372 107.22 168.109C113.085 180.128 110.738 183.605 107.112 186.726C71.1399 183.957 57.628 190.142 22.6456 211.55C18.1549 206.795 15.9232 200.277 17.5625 196.001Z" fill="url(#paint19_linear_1041_544)"/>
<path d="M97.2045 224.54C102.264 224.294 102.41 218.616 97.5519 214.316" stroke="#B24E3C" stroke-width="1.2663"/>
<path d="M79.6752 236.432C83.64 242.432 91.6734 243.283 99.8585 238.443" stroke="#B24E3C" stroke-width="1.84956"/>
<path d="M20.9815 189.47C40.8618 166.613 73.1578 157.128 100.161 163.854" stroke="#023161" stroke-width="1.78419" stroke-linecap="round"/>
<path d="M30.9691 217.218C32.6662 217.546 33.3395 218.299 33.7615 221.235C34.6265 225.39 36.9839 226.564 36.6822 228.662C36.2672 231.384 34.5854 231.32 32.5279 229.527C29.9756 227.303 26.9346 222.974 27.2516 219.419C27.4327 217.388 28.6319 216.827 30.9691 217.218Z" fill="#E86D60"/>
<defs>
<filter id="filter0_d_1041_544" x="-4.75901" y="-16.6809" width="332.205" height="142.347" filterUnits="userSpaceOnUse" color-interpolation-filters="sRGB">
<feFlood flood-opacity="0" result="BackgroundImageFix"/>
<feColorMatrix in="SourceAlpha" type="matrix" values="0 0 0 0 0 0 0 0 0 0 0 0 0 0 0 0 0 0 127 0" result="hardAlpha"/>
<feOffset dy="6.37187"/>
<feGaussianBlur stdDeviation="14.9839"/>
<feComposite in2="hardAlpha" operator="out"/>
<feColorMatrix type="matrix" values="0 0 0 0 0 0 0 0 0 0 0 0 0 0 0 0 0 0 0.16 0"/>
<feBlend mode="normal" in2="BackgroundImageFix" result="effect1_dropShadow_1041_544"/>
<feBlend mode="normal" in="SourceGraphic" in2="effect1_dropShadow_1041_544" result="shape"/>
</filter>
<filter id="filter1_d_1041_544" x="38.9206" y="18.7447" width="245.757" height="67.7386" filterUnits="userSpaceOnUse" color-interpolation-filters="sRGB">
<feFlood flood-opacity="0" result="BackgroundImageFix"/>
<feColorMatrix in="SourceAlpha" type="matrix" values="0 0 0 0 0 0 0 0 0 0 0 0 0 0 0 0 0 0 127 0" result="hardAlpha"/>
<feOffset dy="5.99358"/>
<feGaussianBlur stdDeviation="7.49197"/>
<feComposite in2="hardAlpha" operator="out"/>
<feColorMatrix type="matrix" values="0 0 0 0 0 0 0 0 0 0.0232692 0 0 0 0 0.232692 0 0 0 0.2 0"/>
<feBlend mode="normal" in2="BackgroundImageFix" result="effect1_dropShadow_1041_544"/>
<feBlend mode="normal" in="SourceGraphic" in2="effect1_dropShadow_1041_544" result="shape"/>
</filter>
<filter id="filter2_d_1041_544" x="22.7789" y="68.9134" width="43.1805" height="43.1804" filterUnits="userSpaceOnUse" color-interpolation-filters="sRGB">
<feFlood flood-opacity="0" result="BackgroundImageFix"/>
<feColorMatrix in="SourceAlpha" type="matrix" values="0 0 0 0 0 0 0 0 0 0 0 0 0 0 0 0 0 0 127 0" result="hardAlpha"/>
<feOffset dy="1.18843"/>
<feGaussianBlur stdDeviation="4.45662"/>
<feComposite in2="hardAlpha" operator="out"/>
<feColorMatrix type="matrix" values="0 0 0 0 0 0 0 0 0 0 0 0 0 0 0 0 0 0 0.25 0"/>
<feBlend mode="normal" in2="BackgroundImageFix" result="effect1_dropShadow_1041_544"/>
<feBlend mode="normal" in="SourceGraphic" in2="effect1_dropShadow_1041_544" result="shape"/>
</filter>
<linearGradient id="paint0_linear_1041_544" x1="175.459" y1="205.9" x2="-105.248" y2="573.896" gradientUnits="userSpaceOnUse">
<stop stop-color="#EDF6FF"/>
<stop offset="1" stop-color="#BBDDFF"/>
</linearGradient>
<linearGradient id="paint1_linear_1041_544" x1="127.879" y1="147.015" x2="140.616" y2="-8.06883" gradientUnits="userSpaceOnUse">
<stop stop-color="#235F9C" stop-opacity="0.3"/>
<stop offset="1" stop-color="#235F9C" stop-opacity="0"/>
</linearGradient>
<linearGradient id="paint2_linear_1041_544" x1="211.533" y1="317.409" x2="209.427" y2="374.664" gradientUnits="userSpaceOnUse">
<stop stop-color="#235F9C"/>
<stop offset="1" stop-color="#03386E"/>
</linearGradient>
<linearGradient id="paint3_linear_1041_544" x1="92.5558" y1="268.625" x2="87.8224" y2="402.821" gradientUnits="userSpaceOnUse">
<stop stop-color="#FCC112"/>
<stop offset="1" stop-color="#B2732A"/>
</linearGradient>
<linearGradient id="paint4_linear_1041_544" x1="101.199" y1="283.607" x2="149.602" y2="276.116" gradientUnits="userSpaceOnUse">
<stop stop-color="#03009A"/>
<stop offset="1" stop-color="#3330E4"/>
</linearGradient>
<linearGradient id="paint5_linear_1041_544" x1="61.1134" y1="229.962" x2="78.5568" y2="260.787" gradientUnits="userSpaceOnUse">
<stop stop-color="#EF6E60"/>
<stop offset="1" stop-color="#FCA68C"/>
</linearGradient>
<linearGradient id="paint6_linear_1041_544" x1="62.0159" y1="242.119" x2="79.7518" y2="264.134" gradientUnits="userSpaceOnUse">
<stop stop-color="#E86D60"/>
<stop offset="1" stop-color="#E86D60" stop-opacity="0"/>
</linearGradient>
<linearGradient id="paint7_linear_1041_544" x1="49.339" y1="420.497" x2="33.2266" y2="292.387" gradientUnits="userSpaceOnUse">
<stop stop-color="#0A3D71"/>
<stop offset="0.538444" stop-color="#235F9C"/>
<stop offset="1" stop-color="#549BE3"/>
</linearGradient>
<linearGradient id="paint8_linear_1041_544" x1="63.1685" y1="374.075" x2="124.249" y2="316.452" gradientUnits="userSpaceOnUse">
<stop stop-color="#2D2AE5"/>
<stop offset="1" stop-color="#575EFF"/>
</linearGradient>
<linearGradient id="paint9_linear_1041_544" x1="83.3101" y1="234.843" x2="70.5007" y2="261.834" gradientUnits="userSpaceOnUse">
<stop stop-color="#FCA68C"/>
<stop offset="1" stop-color="#FF8C68"/>
</linearGradient>
<linearGradient id="paint10_linear_1041_544" x1="24.8998" y1="187.35" x2="74.2209" y2="152.226" gradientUnits="userSpaceOnUse">
<stop stop-color="#112FB4"/>
<stop offset="1" stop-color="#4666F7"/>
</linearGradient>
<linearGradient id="paint11_linear_1041_544" x1="81.1887" y1="168.257" x2="34.6348" y2="191.767" gradientUnits="userSpaceOnUse">
<stop stop-color="#5775FC"/>
<stop offset="1" stop-color="#3A5EFF"/>
</linearGradient>
<linearGradient id="paint12_linear_1041_544" x1="53.6451" y1="63.3431" x2="41.5866" y2="100.446" gradientUnits="userSpaceOnUse">
<stop stop-color="#E4F2FF"/>
<stop offset="1" stop-color="#2F5F91"/>
</linearGradient>
<linearGradient id="paint13_linear_1041_544" x1="101.199" y1="283.608" x2="149.602" y2="276.117" gradientUnits="userSpaceOnUse">
<stop stop-color="#235F9C"/>
<stop offset="1" stop-color="#448BD4"/>
</linearGradient>
<linearGradient id="paint14_linear_1041_544" x1="61.1134" y1="229.963" x2="78.5568" y2="260.787" gradientUnits="userSpaceOnUse">
<stop stop-color="#EF6E60"/>
<stop offset="1" stop-color="#FCA68C"/>
</linearGradient>
<linearGradient id="paint15_linear_1041_544" x1="62.0159" y1="242.119" x2="79.7518" y2="264.134" gradientUnits="userSpaceOnUse">
<stop stop-color="#E86D60"/>
<stop offset="1" stop-color="#E86D60" stop-opacity="0"/>
</linearGradient>
<linearGradient id="paint16_linear_1041_544" x1="63.1685" y1="374.075" x2="124.249" y2="316.452" gradientUnits="userSpaceOnUse">
<stop stop-color="#235F9C"/>
<stop offset="1" stop-color="#4383C5"/>
</linearGradient>
<linearGradient id="paint17_linear_1041_544" x1="83.3105" y1="234.844" x2="70.501" y2="261.834" gradientUnits="userSpaceOnUse">
<stop stop-color="#FCA68C"/>
<stop offset="1" stop-color="#FF8C68"/>
</linearGradient>
<linearGradient id="paint18_linear_1041_544" x1="24.9" y1="187.35" x2="74.2212" y2="152.226" gradientUnits="userSpaceOnUse">
<stop stop-color="#235F9C"/>
<stop offset="1" stop-color="#3C7FC4"/>
</linearGradient>
<linearGradient id="paint19_linear_1041_544" x1="81.1889" y1="168.257" x2="34.635" y2="191.767" gradientUnits="userSpaceOnUse">
<stop stop-color="#387FC8"/>
<stop offset="1" stop-color="#235F9C"/>
</linearGradient>
<clipPath id="clip0_1041_544">
<rect x="14.1892" y="0.000183105" width="349.193" height="412.578" rx="23.0491" fill="white"/>
</clipPath>
<clipPath id="clip1_1041_544">
<rect width="38.0309" height="38.0309" fill="white" transform="translate(25.3539 70.2999)"/>
</clipPath>
</defs>
</svg>
