<svg preserveAspectRatio="none" overflow="visible" style="display: block;" width="13.366" height="12.6969" viewBox="0 0 13.366 12.6969" fill="none" xmlns="http://www.w3.org/2000/svg">
<g id="Star">
<path id="Star_2" d="M10.6372 7.89826C10.4641 8.06598 10.3846 8.30854 10.424 8.54642L11.0181 11.834C11.0682 12.1127 10.9506 12.3946 10.7174 12.5557C10.4888 12.7227 10.1848 12.7428 9.93557 12.6091L6.97606 11.0656C6.87316 11.0108 6.75889 10.9814 6.64196 10.978H6.46087C6.39806 10.9874 6.33658 11.0074 6.28045 11.0382L3.32028 12.5891C3.17394 12.6626 3.00822 12.6887 2.84585 12.6626C2.45027 12.5878 2.18632 12.2109 2.25114 11.8133L2.84585 8.52571C2.88527 8.28582 2.80576 8.04192 2.63269 7.87153L0.219779 5.53279C0.0179792 5.337 -0.052183 5.04299 0.0400301 4.77771C0.12957 4.5131 0.358099 4.31999 0.63407 4.27655L3.95508 3.79477C4.20766 3.76871 4.42951 3.61502 4.5431 3.38783L6.00649 0.387563C6.04123 0.320742 6.086 0.259266 6.14013 0.207146L6.20027 0.160371C6.23167 0.125624 6.26776 0.0968912 6.30785 0.0735038L6.38068 0.0467754L6.49428 5.73675e-07H6.7756C7.02684 0.0260608 7.24802 0.176408 7.36362 0.400927L8.84638 3.38783C8.9533 3.60634 9.16111 3.75802 9.401 3.79477L12.722 4.27655C13.0027 4.31664 13.2372 4.51043 13.3301 4.77771C13.4176 5.04566 13.3421 5.33968 13.1363 5.53279L10.6372 7.89826Z" fill="#F66D22"/>
</g>
</svg>
