<svg width="60" height="57" viewBox="0 0 60 57" fill="none" xmlns="http://www.w3.org/2000/svg">
<path d="M36.5365 56.3529C34.426 56.3529 32.3174 56.3081 30.2307 56.2653L28.6746 56.2334C22.1428 56.102 15.387 55.9676 9.12 54.2005C3.66537 52.6624 3.31293 48.7051 2.9396 44.5158C2.19792 36.1979 2.59116 27.5874 3.12378 19.5204C3.17057 18.8166 3.18351 17.9773 3.19745 17.0614C3.26316 12.8333 3.35276 7.04217 6.75556 4.87983C11.58 1.81452 19.196 2.11517 25.3186 2.36008C26.3182 2.3999 27.2679 2.43674 28.144 2.45665C35.7669 2.62589 44.5636 2.99425 52.552 5.24121C52.8118 5.2671 53.0667 5.34375 53.3086 5.47218C56.7323 7.26019 57.3585 15.7543 57.4451 19.7166C57.462 19.7912 57.479 19.8748 57.4939 19.9674L57.5238 19.9744C57.5228 19.9853 57.5188 20.0162 57.5138 20.0959C58.1898 24.6873 57.2291 46.8085 57.2032 47.0435C56.7383 51.2716 56.2076 53.9188 51.3563 55.0188C46.5637 56.106 41.5422 56.3529 36.5365 56.3529ZM19.8401 3.54081C15.2884 3.54081 10.6422 3.97885 7.46738 5.99683C4.6649 7.77688 4.58225 13.1559 4.52152 17.0823C4.5056 18.0231 4.49266 18.8853 4.44487 19.608C3.91424 27.6222 3.524 36.172 4.25772 44.3993C4.66988 49.0216 5.11589 51.6977 9.48039 52.9272C15.5831 54.6485 22.2543 54.7819 28.7035 54.9113L30.2595 54.9432C37.2185 55.0905 44.4093 55.2389 51.0666 53.7286C54.8845 52.8635 55.4221 51.169 55.891 46.8991C56.5242 41.1428 56.4585 27.4699 56.3351 22.1367L56.1439 22.1039L56.1529 21.5046C56.1529 21.4976 56.1529 21.4926 56.1529 21.4866C56.1997 18.0699 55.6661 8.19501 52.6983 6.64494C52.5968 6.59118 52.4982 6.56231 52.3987 6.55634L52.2563 6.53244C44.4014 4.31136 35.6764 3.94699 28.1171 3.77974C27.2331 3.75983 26.2754 3.722 25.2669 3.68218C23.5446 3.61348 21.6998 3.54081 19.8401 3.54081Z" fill="#FCC112"/>
<path d="M10.2606 3.56568C10.2587 3.72098 10.3144 1.01706 9.53191 0.60789C9.49408 0.587979 9.45823 0.579013 9.42338 0.577022C7.93205 0.154908 6.31326 0.0792494 4.77314 0.0454006C3.61432 0.0195162 1.79248 -0.171631 0.751128 0.489416C0.0223837 0.952348 0.162742 2.45464 0.11396 3.19235C0.00942693 4.76831 -0.0622332 6.3801 0.0781397 7.95507C0.157784 8.84808 0.250348 9.43844 1.16924 9.69728C2.40373 10.0457 3.76566 10.0587 5.03798 10.0846C6.39591 10.1124 7.8544 10.1542 9.18844 9.85159C10.0217 9.66244 10.1203 9.24232 10.2099 8.43492C10.3871 6.83109 10.2865 1.95288 10.2606 3.56568Z" fill="#FCC112"/>
<path d="M58.9739 3.56562C58.9719 3.72092 59.0277 1.017 58.2452 0.607829C58.2073 0.587918 58.1715 0.578952 58.1366 0.576961C56.6443 0.154847 55.0265 0.0791883 53.4864 0.0453395C52.3276 0.0194552 50.5047 -0.171692 49.4644 0.489355C48.7356 0.952287 48.876 2.45458 48.8272 3.19228C48.7227 4.76824 48.651 6.38004 48.7914 7.955C48.871 8.84802 48.9636 9.43838 49.8825 9.69722C51.117 10.0457 52.4789 10.0586 53.7512 10.0845C55.1092 10.1124 56.5677 10.1542 57.9017 9.85153C58.735 9.66238 58.8335 9.24226 58.9231 8.43486C59.0993 6.83103 58.9988 1.95282 58.9739 3.56562Z" fill="#FCC112"/>
<path d="M10.2606 49.876C10.2587 50.0313 10.3144 47.3273 9.53191 46.9182C9.49408 46.8983 9.45823 46.8893 9.42338 46.8873C7.93205 46.4652 6.31326 46.3896 4.77314 46.3557C3.61432 46.3298 1.79248 46.1387 0.751128 46.7997C0.0223837 47.2627 0.162742 48.7649 0.11396 49.5026C0.00942693 51.0786 -0.0622332 52.6904 0.0781397 54.2654C0.157784 55.1584 0.250348 55.7487 1.16924 56.0076C2.40373 56.356 3.76566 56.369 5.03798 56.3949C6.39591 56.4227 7.8544 56.4645 9.18844 56.1619C10.0217 55.9727 10.1203 55.5526 10.2099 54.7452C10.3871 53.1414 10.2865 48.2632 10.2606 49.876Z" fill="#FCC112"/>
<path d="M58.9739 49.876C58.9719 50.0313 59.0277 47.3273 58.2452 46.9182C58.2073 46.8983 58.1715 46.8893 58.1366 46.8873C56.6443 46.4652 55.0265 46.3896 53.4864 46.3557C52.3276 46.3298 50.5047 46.1387 49.4644 46.7997C48.7356 47.2627 48.876 48.7649 48.8272 49.5026C48.7227 51.0786 48.651 52.6904 48.7914 54.2654C48.871 55.1584 48.9636 55.7487 49.8825 56.0076C51.117 56.356 52.4789 56.369 53.7512 56.3949C55.1092 56.4227 56.5677 56.4645 57.9017 56.1619C58.735 55.9727 58.8335 55.5526 58.9231 54.7452C59.0993 53.1414 58.9988 48.2632 58.9739 49.876Z" fill="#FCC112"/>
<path d="M21.0768 19.7981C20.3959 19.7732 19.8792 19.5652 19.5267 19.1739C19.1743 18.7826 18.9971 18.0967 18.9971 17.1131C18.9971 16.3057 19.1743 15.7084 19.5267 15.3171C19.8792 14.9269 20.3829 14.7308 21.04 14.7308C21.8205 14.7566 22.7723 14.7875 23.8943 14.8253C25.0153 14.8632 26.1631 14.888 27.3359 14.901C28.5077 14.9139 29.5589 14.9199 30.4918 14.9199C32.3833 14.9199 34.2599 14.901 36.1256 14.8632C37.9913 14.8253 39.8052 14.7686 41.5703 14.6929C42.1766 14.668 42.6415 14.8502 42.9691 15.2405C43.2956 15.6317 43.4618 16.2301 43.4618 17.0374C43.4618 18.0201 43.2916 18.714 42.9511 19.1172C42.6097 19.5213 42.087 19.7225 41.3811 19.7225C39.7166 19.7981 37.9714 19.8608 36.1445 19.9106C34.3167 19.9614 32.4699 19.9863 30.6043 19.9863C28.9656 19.9863 27.3339 19.9674 25.7081 19.9305C24.0824 19.8927 22.5373 19.8489 21.0768 19.7981ZM27.9959 17.4546C27.9959 17.2027 28.1024 16.9877 28.3165 16.8115C28.5305 16.6352 28.7834 16.4839 29.0731 16.3575C29.3628 16.2311 29.6645 16.1375 29.9801 16.0737C30.2956 16.011 30.5406 15.9792 30.7178 15.9792C30.9189 15.9792 31.1648 16.011 31.4555 16.0737C31.7452 16.1375 32.0339 16.2311 32.3246 16.3575C32.6143 16.4839 32.8592 16.6352 33.0613 16.8115C33.2634 16.9877 33.364 17.2027 33.364 17.4546C33.364 21.8161 33.2893 26.1 33.138 30.3102C32.9866 34.5203 32.7467 38.6539 32.4202 42.7127C32.3943 43.1667 32.237 43.5251 31.9473 43.7899C31.6566 44.0538 31.3171 44.2489 30.9268 44.3763C30.5356 44.5018 30.1384 44.5655 29.7352 44.5655C29.332 44.5655 28.9228 44.5018 28.5067 44.3763C28.0905 44.2499 27.75 44.0358 27.4862 43.7332C27.2214 43.4305 27.1009 43.0403 27.1268 42.5604C27.4294 38.7037 27.6485 34.6458 27.7878 30.3858C27.9262 26.1258 27.9959 21.8151 27.9959 17.4546Z" fill="#FCC112"/>
</svg>
